<?xml version="1.0" encoding="UTF-8" standalone="no"?>
<svg
   xmlns:dc="http://purl.org/dc/elements/1.1/"
   xmlns:cc="http://creativecommons.org/ns#"
   xmlns:rdf="http://www.w3.org/1999/02/22-rdf-syntax-ns#"
   xmlns:svg="http://www.w3.org/2000/svg"
   xmlns="http://www.w3.org/2000/svg"
   xmlns:sodipodi="http://sodipodi.sourceforge.net/DTD/sodipodi-0.dtd"
   xmlns:inkscape="http://www.inkscape.org/namespaces/inkscape"
   width="162.56mm"
   height="128.5mm"
   viewBox="0 0 162.55999 128.5"
   version="1.1"
   id="svg1543"
   inkscape:version="1.0.1 (3bc2e813f5, 2020-09-07)"
   sodipodi:docname="Kick.svg">
  <defs
     id="defs1537" />
  <sodipodi:namedview
     id="base"
     pagecolor="#ffffff"
     bordercolor="#666666"
     borderopacity="1.0"
     inkscape:pageopacity="0.0"
     inkscape:pageshadow="2"
     inkscape:zoom="1.4915534"
     inkscape:cx="265.85646"
     inkscape:cy="290.96712"
     inkscape:document-units="mm"
     inkscape:current-layer="layer1"
     inkscape:document-rotation="0"
     showgrid="true"
     scale-x="1"
     inkscape:snap-object-midpoints="true"
     inkscape:snap-text-baseline="false"
     inkscape:snap-center="true"
     showguides="true"
     inkscape:snap-others="true"
     inkscape:snap-nodes="true"
     inkscape:object-paths="true"
     inkscape:snap-grids="true"
     inkscape:guide-bbox="true"
     inkscape:snap-to-guides="true"
     inkscape:window-width="1718"
     inkscape:window-height="1368"
     inkscape:window-x="1713"
     inkscape:window-y="743"
     inkscape:window-maximized="0">
    <inkscape:grid
       type="xygrid"
       id="grid1547"
       spacingx="2.54"
       spacingy="2.67708"
       units="mm"
       empspacing="4" />
    <sodipodi:guide
       position="40.64,85.666722"
       orientation="0,-1"
       id="guide2357" />
    <sodipodi:guide
       position="55.88,42.833441"
       orientation="0,-1"
       id="guide2359" />
  </sodipodi:namedview>
  <metadata
     id="metadata1540">
    <rdf:RDF>
      <cc:Work
         rdf:about="">
        <dc:format>image/svg+xml</dc:format>
        <dc:type
           rdf:resource="http://purl.org/dc/dcmitype/StillImage" />
        <dc:title />
      </cc:Work>
    </rdf:RDF>
  </metadata>
  <g
     inkscape:label="Layer 1"
     inkscape:groupmode="layer"
     id="layer1">
    <rect
       style="display:inline;fill:#f9f9f9;fill-opacity:1;stroke:none;stroke-width:0.264583"
       id="rect1549"
       width="162.56"
       height="128.5"
       x="-2.1175824e-22"
       y="0" />
    <g
       aria-label="TRIG"
       id="text2822"
       style="font-size:2.82223px;line-height:1.25;font-family:sans-serif;stroke-width:0.264583"
       transform="translate(0,59.795865)">
      <path
         d="m 153.16345,37.000163 h -0.73312 v 1.809369 h -0.27285 v -1.809369 h -0.73312 v -0.242535 h 1.73909 z"
         style="stroke-width:0.264583"
         id="path2882" />
      <path
         d="m 155.13681,38.809532 h -0.35416 l -0.68626,-0.815801 h -0.38448 v 0.815801 h -0.27285 v -2.051904 h 0.57464 q 0.18604,0 0.31006,0.0248 0.12403,0.02343 0.22325,0.08544 0.11162,0.07028 0.17363,0.177767 0.0634,0.10611 0.0634,0.270097 0,0.221864 -0.11162,0.372071 -0.11162,0.148828 -0.30731,0.224621 z m -0.63804,-1.474505 q 0,-0.08819 -0.0317,-0.155719 -0.0303,-0.0689 -0.10198,-0.115755 -0.0593,-0.03996 -0.14056,-0.05512 -0.0813,-0.01654 -0.19154,-0.01654 h -0.32109 v 0.774459 h 0.27561 q 0.12954,0 0.226,-0.02205 0.0965,-0.02343 0.16399,-0.08544 0.062,-0.05788 0.0909,-0.132292 0.0303,-0.07579 0.0303,-0.191548 z"
         style="stroke-width:0.264583"
         id="path2884" />
      <path
         d="m 156.12486,38.809532 h -0.81029 V 38.60007 h 0.26872 v -1.63298 h -0.26872 v -0.209462 h 0.81029 v 0.209462 h -0.26871 v 1.63298 h 0.26871 z"
         style="stroke-width:0.264583"
         id="path2886" />
      <path
         d="m 158.30079,38.657948 q -0.16812,0.07717 -0.36794,0.135048 -0.19843,0.0565 -0.38447,0.0565 -0.23978,0 -0.43959,-0.06615 -0.19982,-0.06615 -0.34038,-0.198438 -0.14194,-0.13367 -0.21911,-0.333486 -0.0772,-0.201194 -0.0772,-0.469912 0,-0.491961 0.28663,-0.775838 0.28801,-0.285255 0.78962,-0.285255 0.17501,0 0.35691,0.04272 0.18328,0.04134 0.39412,0.141938 v 0.32384 h -0.0248 q -0.0427,-0.03307 -0.12402,-0.08682 -0.0813,-0.05374 -0.15986,-0.08957 -0.0951,-0.04272 -0.21635,-0.07028 -0.11989,-0.02894 -0.27285,-0.02894 -0.34451,0 -0.54571,0.221864 -0.19981,0.220487 -0.19981,0.598071 0,0.398254 0.20946,0.620118 0.20946,0.220487 0.57051,0.220487 0.13229,0 0.2632,-0.02618 0.1323,-0.02618 0.23152,-0.06752 V 38.01716 h -0.54984 v -0.239779 h 0.81993 z"
         style="stroke-width:0.264583"
         id="path2888" />
    </g>
    <rect
       style="fill-opacity:1;stroke:none;stroke-width:0.24153;stroke-opacity:1"
       id="rect2838"
       width="10.16"
       height="13.385401"
       x="149.86"
       y="110.97285" />
    <path
       style="fill:#000000;stroke:#000000;stroke-width:0.264583px;stroke-linecap:butt;stroke-linejoin:miter;stroke-opacity:1"
       d="M 147.32,42.83328 H 5.08 v 0"
       id="path2112" />
    <path
       style="fill:#000000;stroke:#000000;stroke-width:0.264583px;stroke-linecap:butt;stroke-linejoin:miter;stroke-opacity:1"
       d="M 147.32,85.666559 H 5.08 v 0"
       id="use2118" />
    <path
       style="fill:none;stroke:#000000;stroke-width:0.329993px;stroke-linecap:butt;stroke-linejoin:miter;stroke-opacity:1"
       d="M 15.24,2.67708 V 40.1562"
       id="path2124" />
    <path
       style="fill:none;stroke:#000000;stroke-width:0.329993px;stroke-linecap:butt;stroke-linejoin:miter;stroke-opacity:1"
       d="M 15.24,45.51036 V 82.98948"
       id="use2126" />
    <path
       style="fill:none;stroke:#000000;stroke-width:0.329993px;stroke-linecap:butt;stroke-linejoin:miter;stroke-opacity:1"
       d="m 15.24,88.34364 v 37.47912"
       id="use2128" />
    <path
       style="fill:none;stroke:#000000;stroke-width:0.267507px;stroke-linecap:butt;stroke-linejoin:miter;stroke-opacity:1"
       d="M 147.32,2.67708 V 125.82276"
       id="path2132" />
    <g
       aria-label="Low FQ"
       transform="matrix(0,-1.1138306,0.8978026,0,0,0)"
       id="text2136"
       style="font-style:normal;font-variant:normal;font-weight:normal;font-stretch:normal;font-size:4.93889px;line-height:1.25;font-family:sans-serif;-inkscape-font-specification:sans-serif;fill:#000000;fill-opacity:1;stroke:none;stroke-width:0.228959">
      <path
         d="M -26.087863,11.316519 H -28.35956 V 7.725695 h 0.477491 v 3.166388 h 1.794206 z"
         style="font-style:normal;font-variant:normal;font-weight:normal;font-stretch:normal;font-size:4.93889px;font-family:sans-serif;-inkscape-font-specification:sans-serif;stroke-width:0.228959"
         id="path2801" />
      <path
         d="m -23.350734,9.9708642 q 0,0.6583578 -0.33762,1.0393858 -0.337619,0.381027 -0.904338,0.381027 -0.571541,0 -0.90916,-0.381027 -0.335208,-0.381028 -0.335208,-1.0393858 0,-0.6583579 0.335208,-1.0393855 0.337619,-0.3834393 0.90916,-0.3834393 0.566719,0 0.904338,0.3834393 0.33762,0.3810276 0.33762,1.0393855 z m -0.467844,0 q 0,-0.5233101 -0.204984,-0.7765247 -0.204983,-0.2556261 -0.56913,-0.2556261 -0.368969,0 -0.573953,0.2556261 -0.202571,0.2532146 -0.202571,0.7765247 0,0.5064288 0.204983,0.7692898 0.204983,0.260449 0.571541,0.260449 0.361736,0 0.566719,-0.258037 0.207395,-0.26045 0.207395,-0.7717018 z"
         style="font-style:normal;font-variant:normal;font-weight:normal;font-stretch:normal;font-size:4.93889px;font-family:sans-serif;-inkscape-font-specification:sans-serif;stroke-width:0.228959"
         id="path2803" />
      <path
         d="m -19.260716,8.622798 -0.701766,2.693721 h -0.419613 l -0.69212,-2.0763597 -0.687296,2.0763597 h -0.417201 l -0.709001,-2.693721 h 0.472667 l 0.494371,2.086006 0.672828,-2.086006 h 0.373793 l 0.689708,2.086006 0.467844,-2.086006 z"
         style="font-style:normal;font-variant:normal;font-weight:normal;font-stretch:normal;font-size:4.93889px;font-family:sans-serif;-inkscape-font-specification:sans-serif;stroke-width:0.228959"
         id="path2805" />
      <path
         d="m -14.541279,8.1501308 h -1.81591 v 1.0128583 h 1.560284 V 9.587425 h -1.560284 v 1.729094 h -0.47749 V 7.725695 h 2.2934 z"
         style="font-style:normal;font-variant:normal;font-weight:normal;font-stretch:normal;font-size:4.93889px;font-family:sans-serif;-inkscape-font-specification:sans-serif;stroke-width:0.228959"
         id="path2807" />
      <path
         d="m -10.793703,12.196741 q -0.144694,0.03617 -0.286976,0.05064 -0.139871,0.01688 -0.286977,0.01688 -0.419612,0 -0.675239,-0.231511 -0.253214,-0.229099 -0.274918,-0.658358 -0.05788,0.0096 -0.113344,0.01206 -0.05305,0.0048 -0.103697,0.0048 -0.378616,0 -0.689709,-0.125401 -0.30868,-0.125402 -0.525721,-0.364147 -0.217041,-0.238745 -0.335208,-0.586011 -0.115755,-0.3472654 -0.115755,-0.7934053 0,-0.4389053 0.115755,-0.786171 0.115755,-0.3496773 0.337619,-0.5980687 0.212218,-0.2363336 0.525722,-0.3617351 0.315915,-0.1254015 0.687297,-0.1254015 0.38585,0 0.69212,0.127813 0.30868,0.1254016 0.52331,0.3593236 0.219452,0.2411567 0.335208,0.590834 0.118166,0.3496773 0.118166,0.7934057 0,0.6583583 -0.270095,1.1093213 -0.267684,0.450963 -0.721059,0.63183 0.0096,0.274919 0.130225,0.426848 0.120578,0.151928 0.438905,0.151928 0.09887,0 0.233922,-0.03135 0.137459,-0.02894 0.195337,-0.05305 h 0.06511 z m -0.56913,-2.6744283 q 0,-0.6993546 -0.313503,-1.0779707 -0.313504,-0.3810276 -0.856107,-0.3810276 -0.547426,0 -0.860929,0.3810276 -0.311092,0.3786161 -0.311092,1.0779707 0,0.7065893 0.318326,1.0827933 0.318327,0.373793 0.853695,0.373793 0.535368,0 0.851284,-0.373793 0.318326,-0.376204 0.318326,-1.0827933 z"
         style="font-style:normal;font-variant:normal;font-weight:normal;font-stretch:normal;font-size:4.93889px;font-family:sans-serif;-inkscape-font-specification:sans-serif;stroke-width:0.228959"
         id="path2809" />
    </g>
    <g
       aria-label="Mid FQ"
       transform="matrix(0,-1.1138306,0.89780259,0,0,0)"
       id="text2168"
       style="font-style:normal;font-variant:normal;font-weight:normal;font-stretch:normal;font-size:4.93889px;line-height:1.25;font-family:sans-serif;-inkscape-font-specification:sans-serif;fill:#000000;fill-opacity:1;stroke:none;stroke-width:0.228959">
      <path
         d="m -63.617647,11.316519 h -0.477491 V 8.2224778 l -0.998388,2.1052982 h -0.284565 l -0.991155,-2.1052982 v 3.0940412 h -0.446139 V 7.725695 h 0.651123 l 0.957392,1.9991893 0.926042,-1.9991893 h 0.663181 z"
         style="font-style:normal;font-variant:normal;font-weight:normal;font-stretch:normal;font-size:4.93889px;font-family:sans-serif;-inkscape-font-specification:sans-serif;stroke-width:0.228959"
         id="path2790" />
      <path
         d="m -62.202057,8.1718349 h -0.511252 V 7.7015793 h 0.511252 z m -0.02894,3.1446841 H -62.68437 V 8.622798 h 0.453374 z"
         style="font-style:normal;font-variant:normal;font-weight:normal;font-stretch:normal;font-size:4.93889px;font-family:sans-serif;-inkscape-font-specification:sans-serif;stroke-width:0.228959"
         id="path2792" />
      <path
         d="m -59.149013,11.316519 h -0.453374 v -0.282154 q -0.195337,0.16881 -0.407555,0.262861 -0.212218,0.09405 -0.46061,0.09405 -0.482313,0 -0.766878,-0.371381 -0.282153,-0.371381 -0.282153,-1.0297393 0,-0.3424425 0.09646,-0.6101265 0.09887,-0.267684 0.265273,-0.4557863 0.163986,-0.1832791 0.381027,-0.2797418 0.219453,-0.096463 0.453375,-0.096463 0.212218,0 0.376205,0.04582 0.163986,0.043408 0.344854,0.1374594 V 7.56412 h 0.453374 z m -0.453374,-0.663181 V 9.1075231 q -0.183279,-0.081993 -0.327973,-0.1133437 -0.144695,-0.03135 -0.315916,-0.03135 -0.381027,0 -0.593245,0.2652724 -0.212218,0.2652724 -0.212218,0.7524091 0,0.4799015 0.163986,0.7307045 0.163987,0.248392 0.525722,0.248392 0.192925,0 0.390674,-0.08441 0.197748,-0.08682 0.36897,-0.221864 z"
         style="font-style:normal;font-variant:normal;font-weight:normal;font-stretch:normal;font-size:4.93889px;font-family:sans-serif;-inkscape-font-specification:sans-serif;stroke-width:0.228959"
         id="path2794" />
      <path
         d="m -54.19083,8.1501308 h -1.81591 v 1.0128583 h 1.560284 V 9.587425 h -1.560284 v 1.729094 h -0.477491 V 7.725695 h 2.293401 z"
         style="font-style:normal;font-variant:normal;font-weight:normal;font-stretch:normal;font-size:4.93889px;font-family:sans-serif;-inkscape-font-specification:sans-serif;stroke-width:0.228959"
         id="path2796" />
      <path
         d="m -50.443254,12.196741 q -0.144694,0.03617 -0.286977,0.05064 -0.13987,0.01688 -0.286976,0.01688 -0.419613,0 -0.675239,-0.231511 -0.253215,-0.229099 -0.274919,-0.658358 -0.05788,0.0096 -0.113343,0.01206 -0.05306,0.0048 -0.103698,0.0048 -0.378616,0 -0.689708,-0.125401 -0.308681,-0.125402 -0.525722,-0.364147 -0.217041,-0.238745 -0.335208,-0.586011 -0.115755,-0.3472654 -0.115755,-0.7934053 0,-0.4389053 0.115755,-0.786171 0.115756,-0.3496773 0.33762,-0.5980687 0.212218,-0.2363336 0.525722,-0.3617351 0.315915,-0.1254015 0.687296,-0.1254015 0.385851,0 0.69212,0.127813 0.308681,0.1254016 0.52331,0.3593236 0.219453,0.2411567 0.335208,0.590834 0.118167,0.3496773 0.118167,0.7934057 0,0.6583583 -0.270096,1.1093213 -0.267684,0.450963 -0.721058,0.63183 0.0096,0.274919 0.130224,0.426848 0.120579,0.151928 0.438906,0.151928 0.09887,0 0.233922,-0.03135 0.137459,-0.02894 0.195337,-0.05305 h 0.06511 z m -0.56913,-2.6744283 q 0,-0.6993546 -0.313504,-1.0779707 -0.313503,-0.3810276 -0.856106,-0.3810276 -0.547426,0 -0.86093,0.3810276 -0.311092,0.3786161 -0.311092,1.0779707 0,0.7065893 0.318327,1.0827933 0.318327,0.373793 0.853695,0.373793 0.535368,0 0.851283,-0.373793 0.318327,-0.376204 0.318327,-1.0827933 z"
         style="font-style:normal;font-variant:normal;font-weight:normal;font-stretch:normal;font-size:4.93889px;font-family:sans-serif;-inkscape-font-specification:sans-serif;stroke-width:0.228959"
         id="path2798" />
    </g>
    <g
       aria-label="Head "
       transform="matrix(0,-1.1138306,0.89780259,0,0,0)"
       id="text2172"
       style="font-style:normal;font-variant:normal;font-weight:normal;font-stretch:normal;font-size:4.93889px;line-height:1.25;font-family:sans-serif;-inkscape-font-specification:sans-serif;fill:#000000;fill-opacity:1;stroke:none;stroke-width:0.228959">
      <path
         d="m -100.12096,11.316519 h -0.47749 V 9.5584862 h -1.79179 v 1.7580328 h -0.47749 V 7.725695 h 0.47749 v 1.4083553 h 1.79179 V 7.725695 h 0.47749 z"
         style="font-style:normal;font-variant:normal;font-weight:normal;font-stretch:normal;font-size:4.93889px;font-family:sans-serif;-inkscape-font-specification:sans-serif;stroke-width:0.228959"
         id="path2781" />
      <path
         d="m -96.937687,10.016684 h -1.98472 q 0,0.248391 0.07476,0.434082 0.07476,0.183279 0.204983,0.301446 0.125402,0.115755 0.296623,0.173633 0.173633,0.05788 0.381028,0.05788 0.274918,0 0.552249,-0.10852 0.279741,-0.110932 0.397908,-0.217041 h 0.02412 v 0.494371 q -0.229099,0.09646 -0.467844,0.161575 -0.238745,0.06511 -0.501606,0.06511 -0.670416,0 -1.04662,-0.361736 -0.376205,-0.364146 -0.376205,-1.0321504 0,-0.6607695 0.359324,-1.0490318 0.361735,-0.3882624 0.950157,-0.3882624 0.545014,0 0.839226,0.3183269 0.296622,0.3183269 0.296622,0.9043378 z m -0.441316,-0.3472657 q -0.0024,-0.356912 -0.180868,-0.552249 -0.176044,-0.1953369 -0.53778,-0.1953369 -0.364146,0 -0.581187,0.2146295 -0.21463,0.2146295 -0.243569,0.5329564 z"
         style="font-style:normal;font-variant:normal;font-weight:normal;font-stretch:normal;font-size:4.93889px;font-family:sans-serif;-inkscape-font-specification:sans-serif;stroke-width:0.228959"
         id="path2783" />
      <path
         d="m -94.157149,11.316519 h -0.450964 v -0.286977 q -0.06029,0.041 -0.163986,0.115756 -0.101286,0.07235 -0.197749,0.115755 -0.113343,0.05547 -0.260449,0.09164 -0.147106,0.03859 -0.344854,0.03859 -0.364147,0 -0.617361,-0.241156 -0.253215,-0.241157 -0.253215,-0.61495 0,-0.306269 0.130225,-0.494371 0.132636,-0.1905142 0.376204,-0.2990347 0.24598,-0.1085205 0.590834,-0.1471056 0.344854,-0.038585 0.740351,-0.057878 v -0.069935 q 0,-0.1543403 -0.05547,-0.2556261 -0.05305,-0.1012859 -0.15434,-0.1591635 -0.09646,-0.055466 -0.23151,-0.074759 -0.135048,-0.019293 -0.282154,-0.019293 -0.178456,0 -0.397908,0.048231 -0.219453,0.04582 -0.453375,0.1350478 h -0.02412 V 8.6806756 q 0.132637,-0.036174 0.38344,-0.079582 0.250803,-0.043408 0.494371,-0.043408 0.284565,0 0.494371,0.048231 0.212218,0.04582 0.366558,0.1591634 0.151929,0.1109321 0.231511,0.2869765 0.07958,0.1760444 0.07958,0.4364937 z m -0.450964,-0.663181 V 9.9033403 q -0.207394,0.012058 -0.489548,0.036174 -0.279742,0.024116 -0.443728,0.069935 -0.195337,0.05547 -0.315915,0.173633 -0.120579,0.115755 -0.120579,0.320739 0,0.23151 0.139871,0.349677 0.139871,0.115755 0.426848,0.115755 0.238745,0 0.436493,-0.09164 0.197749,-0.09405 0.366558,-0.224276 z"
         style="font-style:normal;font-variant:normal;font-weight:normal;font-stretch:normal;font-size:4.93889px;font-family:sans-serif;-inkscape-font-specification:sans-serif;stroke-width:0.228959"
         id="path2785" />
      <path
         d="m -91.099282,11.316519 h -0.453375 v -0.282154 q -0.195336,0.16881 -0.407554,0.262861 -0.212218,0.09405 -0.46061,0.09405 -0.482313,0 -0.766878,-0.371381 -0.282154,-0.371381 -0.282154,-1.0297393 0,-0.3424425 0.09646,-0.6101265 0.09887,-0.267684 0.265273,-0.4557863 0.163986,-0.1832791 0.381027,-0.2797418 0.219453,-0.096463 0.453375,-0.096463 0.212218,0 0.376204,0.04582 0.163987,0.043408 0.344854,0.1374594 V 7.56412 h 0.453375 z m -0.453375,-0.663181 V 9.1075231 q -0.183279,-0.081993 -0.327973,-0.1133437 -0.144694,-0.03135 -0.315915,-0.03135 -0.381028,0 -0.593246,0.2652724 -0.212218,0.2652724 -0.212218,0.7524091 0,0.4799015 0.163987,0.7307045 0.163987,0.248392 0.525722,0.248392 0.192925,0 0.390674,-0.08441 0.197748,-0.08682 0.368969,-0.221864 z"
         style="font-style:normal;font-variant:normal;font-weight:normal;font-stretch:normal;font-size:4.93889px;font-family:sans-serif;-inkscape-font-specification:sans-serif;stroke-width:0.228959"
         id="path2787" />
    </g>
    <path
       style="fill:none;stroke:#000000;stroke-width:0.264583px;stroke-linecap:butt;stroke-linejoin:miter;stroke-opacity:1"
       d="m 30.538831,30.980781 0.05118,-4.509789"
       id="path2212" />
    <path
       style="fill:none;stroke:#000000;stroke-width:0.303803px;stroke-linecap:butt;stroke-linejoin:miter;stroke-opacity:1"
       d="m 50.846566,30.98052 0.05118,-5.945897"
       id="path2245" />
    <path
       style="fill:none;stroke:#000000;stroke-width:0.303803px;stroke-linecap:butt;stroke-linejoin:miter;stroke-opacity:1"
       d="m 71.166565,30.98052 0.05118,-5.945897"
       id="use2251" />
    <path
       style="fill:none;stroke:#000000;stroke-width:0.303803px;stroke-linecap:butt;stroke-linejoin:miter;stroke-opacity:1"
       d="m 91.486565,30.98052 0.05118,-5.945897"
       id="use2257" />
    <path
       style="fill:none;stroke:#000000;stroke-width:0.303803px;stroke-linecap:butt;stroke-linejoin:miter;stroke-opacity:1"
       d="m 111.80657,30.98052 0.0512,-5.945897"
       id="use2263" />
    <path
       style="fill:none;stroke:#000000;stroke-width:0.303803px;stroke-linecap:butt;stroke-linejoin:miter;stroke-opacity:1"
       d="m 132.12656,30.98052 0.0512,-5.945897"
       id="use2275" />
    <path
       style="fill:none;stroke:#000000;stroke-width:0.264583px;stroke-linecap:butt;stroke-linejoin:miter;stroke-opacity:1"
       d="m 30.538832,73.814062 0.05118,-4.509789"
       id="use2403" />
    <path
       style="fill:none;stroke:#000000;stroke-width:0.303803px;stroke-linecap:butt;stroke-linejoin:miter;stroke-opacity:1"
       d="m 50.846567,73.813801 0.05118,-5.945897"
       id="use2409" />
    <path
       style="fill:none;stroke:#000000;stroke-width:0.303803px;stroke-linecap:butt;stroke-linejoin:miter;stroke-opacity:1"
       d="m 71.166566,73.813801 0.05118,-5.945897"
       id="use2415" />
    <path
       style="fill:none;stroke:#000000;stroke-width:0.303803px;stroke-linecap:butt;stroke-linejoin:miter;stroke-opacity:1"
       d="m 91.486566,73.813801 0.05118,-5.945897"
       id="use2421" />
    <path
       style="fill:none;stroke:#000000;stroke-width:0.303803px;stroke-linecap:butt;stroke-linejoin:miter;stroke-opacity:1"
       d="m 111.80657,73.813801 0.0512,-5.945897"
       id="use2427" />
    <path
       style="fill:none;stroke:#000000;stroke-width:0.303803px;stroke-linecap:butt;stroke-linejoin:miter;stroke-opacity:1"
       d="m 132.12657,73.813801 0.0512,-5.945897"
       id="use2433" />
    <path
       style="fill:none;stroke:#000000;stroke-width:0.264583px;stroke-linecap:butt;stroke-linejoin:miter;stroke-opacity:1"
       d="m 30.538832,116.64734 0.05118,-4.50979"
       id="use2441" />
    <path
       style="fill:none;stroke:#000000;stroke-width:0.303803px;stroke-linecap:butt;stroke-linejoin:miter;stroke-opacity:1"
       d="m 50.846567,116.64708 0.05118,-5.9459"
       id="use2447" />
    <path
       style="fill:none;stroke:#000000;stroke-width:0.303803px;stroke-linecap:butt;stroke-linejoin:miter;stroke-opacity:1"
       d="m 71.166566,116.64708 0.05118,-5.9459"
       id="use2453" />
    <path
       style="fill:none;stroke:#000000;stroke-width:0.303803px;stroke-linecap:butt;stroke-linejoin:miter;stroke-opacity:1"
       d="m 91.486566,116.64708 0.05118,-5.9459"
       id="use2459" />
    <path
       style="fill:none;stroke:#000000;stroke-width:0.303803px;stroke-linecap:butt;stroke-linejoin:miter;stroke-opacity:1"
       d="m 111.80657,116.64708 0.0512,-5.9459"
       id="use2465" />
    <path
       style="fill:none;stroke:#000000;stroke-width:0.303803px;stroke-linecap:butt;stroke-linejoin:miter;stroke-opacity:1"
       d="m 132.12657,116.64708 0.0512,-5.9459"
       id="use2471" />
    <g
       aria-label="FUNDAMENTAL"
       id="text2475"
       style="font-style:normal;font-weight:normal;font-size:2.82222px;line-height:1.25;font-family:sans-serif;fill:#000000;fill-opacity:1;stroke:none;stroke-width:0.264583"
       transform="translate(0,-2.6458334)">
      <path
         d="m 21.90612,11.576037 h -1.037662 v 0.578776 h 0.891591 v 0.242534 H 20.868458 V 13.3854 h -0.272851 v -2.051898 h 1.310513 z"
         style="font-size:2.82222px;stroke-width:0.264583"
         id="path2498" />
      <path
         d="m 23.762336,12.561334 q 0,0.223242 -0.04961,0.389984 -0.04823,0.165365 -0.159852,0.275608 -0.106109,0.10473 -0.248047,0.152962 -0.141938,0.04823 -0.330729,0.04823 -0.192925,0 -0.336241,-0.05099 -0.143316,-0.05099 -0.241156,-0.150206 -0.111621,-0.113 -0.161231,-0.272852 -0.04823,-0.159852 -0.04823,-0.39274 v -1.227832 h 0.272851 v 1.241612 q 0,0.166742 0.02205,0.263205 0.02343,0.09646 0.07717,0.175011 0.06063,0.08957 0.163986,0.135047 0.104731,0.04548 0.250803,0.04548 0.14745,0 0.250803,-0.0441 0.103353,-0.04548 0.165364,-0.136425 0.05374,-0.07855 0.07579,-0.179145 0.02343,-0.101975 0.02343,-0.252181 V 11.3335 h 0.272851 z"
         style="font-size:2.82222px;stroke-width:0.264583"
         id="path2500" />
      <path
         d="M 25.848685,13.3854 H 25.511066 L 24.538171,11.549854 V 13.3854 h -0.254937 v -2.051898 h 0.423058 l 0.887456,1.675694 v -1.675694 h 0.254937 z"
         style="font-size:2.82222px;stroke-width:0.264583"
         id="path2502" />
      <path
         d="m 28.127958,12.361518 q 0,0.279742 -0.122645,0.507118 -0.121267,0.227376 -0.323839,0.352777 -0.14056,0.08682 -0.314192,0.125402 -0.172255,0.03859 -0.454752,0.03859 h -0.518142 v -2.051898 h 0.512629 q 0.300412,0 0.476801,0.0441 0.177767,0.04272 0.300412,0.118511 0.209462,0.130913 0.326595,0.348643 0.117133,0.21773 0.117133,0.516764 z m -0.285253,-0.0041 q 0,-0.241156 -0.08406,-0.406521 -0.08406,-0.165364 -0.250802,-0.260449 -0.121268,-0.0689 -0.257693,-0.09508 -0.136426,-0.02756 -0.326595,-0.02756 H 26.66724 v 1.583365 h 0.256315 q 0.197059,0 0.343131,-0.02894 0.14745,-0.02894 0.270095,-0.107487 0.152962,-0.09784 0.228755,-0.257693 0.07717,-0.159852 0.07717,-0.399631 z"
         style="font-size:2.82222px;stroke-width:0.264583"
         id="path2504" />
      <path
         d="M 30.186746,13.3854 H 29.89598 L 29.694786,12.813514 H 28.80733 L 28.606137,13.3854 h -0.276985 l 0.746896,-2.051898 h 0.363801 z m -0.57602,-0.806152 -0.359668,-1.007345 -0.361045,1.007345 z"
         style="font-size:2.82222px;stroke-width:0.264583"
         id="path2506" />
      <path
         d="M 32.325459,13.3854 H 32.052608 V 11.617378 L 31.4821,12.820405 H 31.319492 L 30.753119,11.617378 V 13.3854 h -0.254937 v -2.051898 h 0.37207 l 0.54708,1.142393 0.529167,-1.142393 h 0.37896 z"
         style="font-size:2.82222px;stroke-width:0.264583"
         id="path2508" />
      <path
         d="m 34.228528,13.3854 h -1.351854 v -2.051898 h 1.351854 v 0.242535 h -1.079003 v 0.562239 h 1.079003 v 0.242535 h -1.079003 v 0.762054 h 1.079003 z"
         style="font-size:2.82222px;stroke-width:0.264583"
         id="path2510" />
      <path
         d="m 36.226683,13.3854 h -0.33762 L 34.916169,11.549854 V 13.3854 h -0.254937 v -2.051898 h 0.423058 l 0.887456,1.675694 v -1.675694 h 0.254937 z"
         style="font-size:2.82222px;stroke-width:0.264583"
         id="path2512" />
      <path
         d="M 38.235861,11.576037 H 37.502746 V 13.3854 h -0.272852 v -1.809363 h -0.733116 v -0.242535 h 1.739083 z"
         style="font-size:2.82222px;stroke-width:0.264583"
         id="path2514" />
      <path
         d="M 39.963919,13.3854 H 39.673153 L 39.471959,12.813514 H 38.584503 L 38.38331,13.3854 h -0.276985 l 0.746896,-2.051898 h 0.363802 z m -0.57602,-0.806152 -0.359668,-1.007345 -0.361045,1.007345 z"
         style="font-size:2.82222px;stroke-width:0.264583"
         id="path2516" />
      <path
         d="m 41.573467,13.3854 h -1.298111 v -2.051898 h 0.272851 v 1.809363 h 1.02526 z"
         style="font-size:2.82222px;stroke-width:0.264583"
         id="path2518" />
    </g>
    <g
       aria-label="PARTIALS"
       id="text2479"
       style="font-style:normal;font-weight:normal;font-size:2.82222px;line-height:1.25;font-family:sans-serif;fill:#000000;fill-opacity:1;stroke:none;stroke-width:0.264583"
       transform="translate(1.270418,-3.3030905)">
      <path
         d="m 44.443042,15.251557 q 0,0.136426 -0.04823,0.253559 -0.04685,0.115755 -0.132291,0.201193 -0.106109,0.106109 -0.250803,0.159853 -0.144694,0.05236 -0.36518,0.05236 h -0.272851 v 0.764811 h -0.272851 v -2.051898 h 0.556727 q 0.184656,0 0.312814,0.0317 0.128157,0.03032 0.227376,0.09646 0.117133,0.07855 0.180523,0.195681 0.06477,0.117133 0.06477,0.296278 z m -0.283876,0.0069 q 0,-0.106109 -0.03721,-0.184657 -0.03721,-0.07855 -0.112999,-0.128157 -0.06615,-0.04272 -0.151584,-0.06063 -0.08406,-0.01929 -0.213596,-0.01929 h -0.270095 v 0.819932 h 0.230132 q 0.165365,0 0.268717,-0.02894 0.103353,-0.03032 0.168121,-0.09508 0.06477,-0.06615 0.09095,-0.139181 0.02756,-0.07304 0.02756,-0.163987 z"
         style="font-size:2.82222px;stroke-width:0.264583"
         id="path2481" />
      <path
         d="m 46.351623,16.683338 h -0.290766 l -0.201193,-0.571886 h -0.887456 l -0.201193,0.571886 h -0.276986 l 0.746896,-2.051898 h 0.363802 z m -0.576019,-0.806152 -0.359668,-1.007345 -0.361046,1.007345 z"
         style="font-size:2.82222px;stroke-width:0.264583"
         id="path2483" />
      <path
         d="M 48.360801,16.683338 H 48.006646 L 47.320383,15.86754 h -0.384472 v 0.815798 H 46.66306 V 14.63144 h 0.574641 q 0.186035,0 0.310058,0.02481 0.124024,0.02343 0.223242,0.08544 0.111621,0.07028 0.173633,0.177767 0.06339,0.106109 0.06339,0.270095 0,0.221864 -0.111621,0.37207 -0.111621,0.148829 -0.307302,0.224621 z m -0.638031,-1.4745 q 0,-0.08819 -0.0317,-0.155718 -0.03032,-0.0689 -0.101974,-0.115755 -0.05926,-0.03996 -0.14056,-0.05512 -0.0813,-0.01654 -0.191547,-0.01654 h -0.321083 v 0.774457 h 0.275607 q 0.129536,0 0.225998,-0.02205 0.09646,-0.02343 0.163987,-0.08544 0.06201,-0.05788 0.09095,-0.132292 0.03032,-0.07579 0.03032,-0.191547 z"
         style="font-size:2.82222px;stroke-width:0.264583"
         id="path2485" />
      <path
         d="m 50.006178,14.873975 h -0.733116 v 1.809363 H 49.000211 V 14.873975 H 48.267095 V 14.63144 h 1.739083 z"
         style="font-size:2.82222px;stroke-width:0.264583"
         id="path2487" />
      <path
         d="m 51.005255,16.683338 h -0.810286 v -0.209462 h 0.268717 V 14.840902 H 50.194969 V 14.63144 h 0.810286 v 0.209462 h -0.268718 v 1.632974 h 0.268718 z"
         style="font-size:2.82222px;stroke-width:0.264583"
         id="path2489" />
      <path
         d="M 53.087469,16.683338 H 52.796703 L 52.59551,16.111452 h -0.887456 l -0.201193,0.571886 h -0.276986 l 0.746896,-2.051898 h 0.363802 z m -0.576019,-0.806152 -0.359668,-1.007345 -0.361046,1.007345 z"
         style="font-size:2.82222px;stroke-width:0.264583"
         id="path2491" />
      <path
         d="M 54.697016,16.683338 H 53.398905 V 14.63144 h 0.272852 v 1.809363 h 1.025259 z"
         style="font-size:2.82222px;stroke-width:0.264583"
         id="path2493" />
      <path
         d="m 56.460904,16.097672 q 0,0.119889 -0.0565,0.237022 -0.05512,0.117133 -0.155718,0.198438 -0.110243,0.08819 -0.257693,0.137803 -0.146072,0.04961 -0.352778,0.04961 -0.221864,0 -0.39963,-0.04134 -0.176389,-0.04134 -0.359668,-0.122646 v -0.341754 h 0.01929 q 0.155719,0.129536 0.359668,0.199815 0.20395,0.07028 0.383094,0.07028 0.253559,0 0.394119,-0.09508 0.141938,-0.09508 0.141938,-0.253559 0,-0.136426 -0.06752,-0.201193 -0.06615,-0.06477 -0.202571,-0.100597 -0.103353,-0.02756 -0.22462,-0.04547 -0.11989,-0.01792 -0.254937,-0.04548 -0.272852,-0.05788 -0.405143,-0.197059 -0.130914,-0.14056 -0.130914,-0.36518 0,-0.257693 0.21773,-0.421679 0.21773,-0.165365 0.552593,-0.165365 0.216352,0 0.396875,0.04134 0.180523,0.04134 0.319704,0.101974 v 0.322461 h -0.01929 q -0.117133,-0.09922 -0.308681,-0.163986 -0.190169,-0.06615 -0.389984,-0.06615 -0.219108,0 -0.352778,0.09095 -0.132291,0.09095 -0.132291,0.234267 0,0.128157 0.06615,0.201193 0.06615,0.07304 0.232888,0.111621 0.08819,0.01929 0.250803,0.04685 0.162608,0.02756 0.275607,0.0565 0.228754,0.06063 0.344509,0.183279 0.115756,0.122645 0.115756,0.343131 z"
         style="font-size:2.82222px;stroke-width:0.264583"
         id="path2495" />
    </g>
    <g
       aria-label="SPREAD"
       id="text2523"
       style="font-size:2.82223px;line-height:1.25;font-family:sans-serif;stroke-width:0.264583"
       transform="translate(0,-2.6458334)">
      <path
         d="m 67.116778,15.476813 q 0,0.11989 -0.0565,0.237023 -0.05512,0.117134 -0.155718,0.198438 -0.110244,0.08819 -0.257694,0.137805 -0.146073,0.04961 -0.352779,0.04961 -0.221865,0 -0.399632,-0.04134 -0.17639,-0.04134 -0.359669,-0.122646 v -0.341754 h 0.01929 q 0.155719,0.129536 0.359669,0.199816 0.203951,0.07028 0.383096,0.07028 0.25356,0 0.39412,-0.09509 0.141938,-0.09508 0.141938,-0.25356 0,-0.136426 -0.06752,-0.201194 -0.06615,-0.06477 -0.202572,-0.100597 -0.103353,-0.02756 -0.224621,-0.04547 -0.119889,-0.01792 -0.254937,-0.04548 -0.272853,-0.05788 -0.405145,-0.19706 -0.130914,-0.14056 -0.130914,-0.365181 0,-0.257694 0.217731,-0.421681 0.21773,-0.165365 0.552595,-0.165365 0.216352,0 0.396876,0.04134 0.180523,0.04134 0.319706,0.101976 v 0.322461 h -0.01929 q -0.117134,-0.09922 -0.308681,-0.163987 -0.19017,-0.06615 -0.389986,-0.06615 -0.219109,0 -0.352779,0.09095 -0.132292,0.09095 -0.132292,0.234267 0,0.128158 0.06615,0.201194 0.06615,0.07304 0.232889,0.111622 0.08819,0.01929 0.250804,0.04685 0.162609,0.02756 0.275608,0.0565 0.228755,0.06063 0.344511,0.18328 0.115755,0.122645 0.115755,0.343132 z"
         style="stroke-width:0.264583"
         id="path2626" />
      <path
         d="m 68.897208,14.630695 q 0,0.136426 -0.04823,0.25356 -0.04685,0.115756 -0.132292,0.201194 -0.106109,0.106109 -0.250804,0.159853 -0.144694,0.05237 -0.365181,0.05237 h -0.272852 v 0.764813 H 67.554996 V 14.01058 h 0.556729 q 0.184658,0 0.312816,0.03169 0.128158,0.03032 0.227377,0.09646 0.117133,0.07855 0.180523,0.195682 0.06477,0.117134 0.06477,0.296279 z m -0.283876,0.0069 q 0,-0.106109 -0.03721,-0.184657 -0.03721,-0.07855 -0.113,-0.128158 -0.06615,-0.04272 -0.151585,-0.06063 -0.08406,-0.01929 -0.213596,-0.01929 h -0.270096 v 0.819935 h 0.230133 q 0.165365,0 0.268718,-0.02894 0.103353,-0.03032 0.168121,-0.09509 0.06477,-0.06615 0.09095,-0.139183 0.02756,-0.07304 0.02756,-0.163987 z"
         style="stroke-width:0.264583"
         id="path2628" />
      <path
         d="M 70.954625,16.062481 H 70.600468 L 69.914203,15.24668 H 69.52973 v 0.815801 h -0.272853 v -2.051905 h 0.574644 q 0.186035,0 0.310059,0.0248 0.124024,0.02343 0.223243,0.08544 0.111621,0.07028 0.173633,0.177767 0.06339,0.106109 0.06339,0.270096 0,0.221865 -0.111621,0.372072 -0.111621,0.148828 -0.307303,0.224621 z m -0.638033,-1.474505 q 0,-0.08819 -0.03169,-0.155719 -0.03032,-0.0689 -0.101975,-0.115755 -0.05926,-0.03996 -0.140561,-0.05512 -0.0813,-0.01654 -0.191548,-0.01654 H 69.52973 v 0.77446 h 0.275608 q 0.129536,0 0.225999,-0.02205 0.09646,-0.02343 0.163987,-0.08544 0.06201,-0.05788 0.09095,-0.132292 0.03032,-0.07579 0.03032,-0.191548 z"
         style="stroke-width:0.264583"
         id="path2630" />
      <path
         d="m 72.571068,16.062481 h -1.351859 v -2.051905 h 1.351859 v 0.242536 h -1.079007 v 0.562241 h 1.079007 v 0.242535 h -1.079007 v 0.762058 h 1.079007 z"
         style="stroke-width:0.264583"
         id="path2632" />
      <path
         d="m 74.621595,16.062481 h -0.290767 l -0.201194,-0.571888 h -0.887459 l -0.201194,0.571888 h -0.276987 l 0.746899,-2.051905 h 0.363803 z m -0.576022,-0.806155 -0.359669,-1.007348 -0.361047,1.007348 z"
         style="stroke-width:0.264583"
         id="path2634" />
      <path
         d="m 76.666609,15.038596 q 0,0.279742 -0.122645,0.507119 -0.121268,0.227377 -0.32384,0.352779 -0.140561,0.08682 -0.314194,0.125402 -0.172255,0.03858 -0.454754,0.03858 h -0.518144 v -2.051905 h 0.512632 q 0.300413,0 0.476803,0.0441 0.177767,0.04272 0.300413,0.118511 0.209462,0.130914 0.326596,0.348645 0.117133,0.217731 0.117133,0.516766 z m -0.285254,-0.0041 q 0,-0.241158 -0.08406,-0.406523 -0.08406,-0.165365 -0.250804,-0.26045 -0.121267,-0.0689 -0.257694,-0.09509 -0.136426,-0.02756 -0.326595,-0.02756 h -0.256316 v 1.583371 h 0.256316 q 0.19706,0 0.343132,-0.02894 0.14745,-0.02894 0.270096,-0.107487 0.152963,-0.09784 0.228755,-0.257694 0.07717,-0.159853 0.07717,-0.399632 z"
         style="stroke-width:0.264583"
         id="path2636" />
    </g>
    <g
       aria-label="BEND"
       id="text2527"
       style="font-size:2.82223px;line-height:1.25;font-family:sans-serif;stroke-width:0.264583"
       transform="translate(0,-2.6458334)">
      <path
         d="m 89.24932,15.368621 q 0,0.152963 -0.05788,0.270096 -0.05788,0.117134 -0.155719,0.192926 -0.115755,0.09095 -0.254937,0.129536 -0.137805,0.03859 -0.351401,0.03859 H 87.701779 V 13.94786 h 0.607716 q 0.224621,0 0.336243,0.01654 0.111621,0.01654 0.213596,0.0689 0.113,0.05926 0.163987,0.152963 0.05099,0.09233 0.05099,0.221865 0,0.146072 -0.07442,0.249425 -0.07441,0.101976 -0.198438,0.163987 v 0.01103 q 0.208085,0.04272 0.327974,0.183279 0.11989,0.139183 0.11989,0.352779 z m -0.458888,-0.924666 q 0,-0.07441 -0.02481,-0.125402 -0.02481,-0.05099 -0.07993,-0.08268 -0.06477,-0.03721 -0.157097,-0.04548 -0.09233,-0.0096 -0.228755,-0.0096 h -0.325218 v 0.592558 h 0.352779 q 0.128158,0 0.20395,-0.0124 0.07579,-0.01378 0.14056,-0.05512 0.06477,-0.04134 0.09095,-0.106109 0.02756,-0.06615 0.02756,-0.155719 z m 0.175011,0.935691 q 0,-0.124024 -0.03721,-0.19706 -0.03721,-0.07304 -0.135048,-0.124024 -0.06615,-0.03445 -0.161231,-0.0441 -0.09371,-0.01102 -0.228755,-0.01102 h -0.428571 v 0.763435 h 0.361047 q 0.179146,0 0.293523,-0.01791 0.114378,-0.01929 0.187414,-0.0689 0.07717,-0.05374 0.112999,-0.122646 0.03583,-0.0689 0.03583,-0.177767 z"
         style="stroke-width:0.264583"
         id="path2639" />
      <path
         d="M 90.988409,15.999764 H 89.63655 V 13.94786 h 1.351859 v 0.242535 h -1.079007 v 0.562241 h 1.079007 v 0.242536 h -1.079007 v 0.762057 h 1.079007 z"
         style="stroke-width:0.264583"
         id="path2641" />
      <path
         d="m 92.98657,15.999764 h -0.33762 l -0.972898,-1.835552 v 1.835552 H 91.421114 V 13.94786 h 0.423059 l 0.887459,1.675699 V 13.94786 h 0.254938 z"
         style="stroke-width:0.264583"
         id="path2643" />
      <path
         d="m 95.265851,14.975879 q 0,0.279743 -0.122645,0.50712 -0.121268,0.227377 -0.32384,0.352778 -0.14056,0.08682 -0.314194,0.125402 -0.172255,0.03859 -0.454754,0.03859 H 93.532275 V 13.94786 h 0.512631 q 0.300413,0 0.476803,0.0441 0.177767,0.04272 0.300413,0.118512 0.209462,0.130914 0.326596,0.348644 0.117133,0.217731 0.117133,0.516766 z m -0.285254,-0.0041 q 0,-0.241157 -0.08406,-0.406522 -0.08406,-0.165365 -0.250803,-0.26045 -0.121268,-0.0689 -0.257694,-0.09509 -0.136426,-0.02756 -0.326596,-0.02756 h -0.256316 v 1.58337 h 0.256316 q 0.19706,0 0.343132,-0.02894 0.147451,-0.02894 0.270096,-0.107487 0.152963,-0.09784 0.228755,-0.257694 0.07717,-0.159853 0.07717,-0.399632 z"
         style="stroke-width:0.264583"
         id="path2645" />
    </g>
    <g
       aria-label="DECAY"
       id="text2531"
       style="font-size:2.82223px;line-height:1.25;font-family:sans-serif;stroke-width:0.264583"
       transform="translate(0,-2.6458334)">
      <path
         d="m 108.94006,15.038596 q 0,0.279742 -0.12264,0.507119 -0.12127,0.227377 -0.32384,0.352779 -0.14056,0.08682 -0.3142,0.125402 -0.17225,0.03858 -0.45475,0.03858 h -0.51814 v -2.051905 h 0.51263 q 0.30041,0 0.4768,0.0441 0.17777,0.04272 0.30041,0.118511 0.20947,0.130914 0.3266,0.348645 0.11713,0.217731 0.11713,0.516766 z m -0.28525,-0.0041 q 0,-0.241158 -0.0841,-0.406523 -0.0841,-0.165365 -0.25081,-0.26045 -0.12126,-0.0689 -0.25769,-0.09509 -0.13643,-0.02756 -0.3266,-0.02756 h -0.25631 v 1.583371 h 0.25631 q 0.19706,0 0.34314,-0.02894 0.14745,-0.02894 0.27009,-0.107487 0.15297,-0.09784 0.22876,-0.257694 0.0772,-0.159853 0.0772,-0.399632 z"
         style="stroke-width:0.264583"
         id="path2648" />
      <path
         d="m 110.7329,16.062481 h -1.35186 v -2.051905 h 1.35186 v 0.242536 h -1.07901 v 0.562241 h 1.07901 v 0.242535 h -1.07901 v 0.762058 h 1.07901 z"
         style="stroke-width:0.264583"
         id="path2650" />
      <path
         d="m 112.75035,15.913652 q -0.0758,0.03307 -0.1378,0.06201 -0.0606,0.02894 -0.15986,0.06063 -0.0841,0.02618 -0.18328,0.0441 -0.0978,0.01929 -0.21635,0.01929 -0.22324,0 -0.40652,-0.06201 -0.1819,-0.06339 -0.31695,-0.19706 -0.13229,-0.130914 -0.20671,-0.332108 -0.0744,-0.202572 -0.0744,-0.469912 0,-0.25356 0.0717,-0.453376 0.0716,-0.199816 0.2067,-0.33762 0.13092,-0.133671 0.31557,-0.203951 0.18604,-0.07028 0.41204,-0.07028 0.16536,0 0.32935,0.03996 0.16537,0.03996 0.36656,0.140561 v 0.32384 h -0.0207 q -0.1695,-0.141939 -0.33624,-0.206707 -0.16675,-0.06477 -0.35692,-0.06477 -0.15572,0 -0.28112,0.05099 -0.12402,0.04961 -0.22186,0.155719 -0.0951,0.103353 -0.14883,0.261828 -0.0524,0.157096 -0.0524,0.363803 0,0.216352 0.0579,0.372071 0.0593,0.155719 0.15159,0.25356 0.0965,0.101975 0.22462,0.151584 0.12953,0.04823 0.27285,0.04823 0.19706,0 0.36931,-0.06752 0.17226,-0.06752 0.32247,-0.202572 h 0.0193 z"
         style="stroke-width:0.264583"
         id="path2652" />
      <path
         d="m 114.75402,16.062481 h -0.29076 l -0.2012,-0.571888 h -0.88746 l -0.20119,0.571888 h -0.27699 l 0.7469,-2.051905 h 0.3638 z m -0.57602,-0.806155 -0.35967,-1.007348 -0.36104,1.007348 z"
         style="stroke-width:0.264583"
         id="path2654" />
      <path
         d="m 116.40767,14.010576 -0.72209,1.152043 v 0.899862 h -0.27285 v -0.870923 l -0.72485,-1.180982 h 0.30179 l 0.56086,0.917776 0.56638,-0.917776 z"
         style="stroke-width:0.264583"
         id="path2656" />
    </g>
    <g
       aria-label="LEVEL"
       id="text2535"
       style="font-size:2.82223px;line-height:1.25;font-family:sans-serif;stroke-width:0.264583"
       transform="translate(0,-2.6458334)">
      <path
         d="m 129.20088,16.062481 h -1.29812 v -2.051905 h 0.27285 v 1.80937 h 1.02527 z"
         style="stroke-width:0.264583"
         id="path2659" />
      <path
         d="m 130.82559,16.062481 h -1.35186 v -2.051905 h 1.35186 v 0.242536 h -1.07901 v 0.562241 h 1.07901 v 0.242535 h -1.07901 v 0.762058 h 1.07901 z"
         style="stroke-width:0.264583"
         id="path2661" />
      <path
         d="m 132.87611,14.010576 -0.7469,2.051905 h -0.3638 l -0.7469,-2.051905 h 0.29215 l 0.64354,1.805235 0.64355,-1.805235 z"
         style="stroke-width:0.264583"
         id="path2663" />
      <path
         d="m 134.53941,16.062481 h -1.35186 v -2.051905 h 1.35186 v 0.242536 h -1.07901 v 0.562241 h 1.07901 v 0.242535 h -1.07901 v 0.762058 h 1.07901 z"
         style="stroke-width:0.264583"
         id="path2665" />
      <path
         d="m 136.27023,16.062481 h -1.29811 v -2.051905 h 0.27285 v 1.80937 h 1.02526 z"
         style="stroke-width:0.264583"
         id="path2667" />
    </g>
    <g
       aria-label="LP "
       id="text2539"
       style="font-size:2.82223px;line-height:1.25;font-family:sans-serif;stroke-width:0.264583"
       transform="translate(0,-2.6458334)">
      <path
         d="m 71.003671,58.990322 h -1.298116 v -2.051904 h 0.272853 v 1.809369 h 1.025263 z"
         style="stroke-width:0.264583"
         id="path2670" />
      <path
         d="m 72.618736,57.558536 q 0,0.136427 -0.04823,0.25356 -0.04685,0.115756 -0.132292,0.201194 -0.10611,0.10611 -0.250804,0.159853 -0.144694,0.05237 -0.365181,0.05237 h -0.272852 v 0.764813 h -0.272853 v -2.051904 h 0.556729 q 0.184658,0 0.312816,0.03169 0.128158,0.03032 0.227377,0.09646 0.117133,0.07855 0.180523,0.195682 0.06477,0.117134 0.06477,0.296279 z m -0.283876,0.0069 q 0,-0.10611 -0.03721,-0.184658 -0.03721,-0.07855 -0.112999,-0.128158 -0.06615,-0.04272 -0.151585,-0.06063 -0.08406,-0.01929 -0.213596,-0.01929 h -0.270096 v 0.819935 h 0.230133 q 0.165365,0 0.268718,-0.02894 0.103353,-0.03032 0.168121,-0.09509 0.06477,-0.06615 0.09095,-0.139182 0.02756,-0.07304 0.02756,-0.163987 z"
         style="stroke-width:0.264583"
         id="path2672" />
    </g>
    <g
       aria-label="HP"
       id="text2543"
       style="font-size:2.82223px;line-height:1.25;font-family:sans-serif;stroke-width:0.264583"
       transform="translate(0,-2.6458334)">
      <path
         d="m 91.222586,58.927608 h -0.272852 v -1.004592 h -1.023885 v 1.004592 h -0.272853 v -2.051904 h 0.272853 v 0.804776 h 1.023885 v -0.804776 h 0.272852 z"
         style="stroke-width:0.264583"
         id="path2675" />
      <path
         d="m 93.116016,57.495823 q 0,0.136426 -0.04823,0.25356 -0.04685,0.115755 -0.132292,0.201194 -0.10611,0.106109 -0.250804,0.159853 -0.144695,0.05237 -0.365181,0.05237 h -0.272853 v 0.764813 h -0.272852 v -2.051904 h 0.556729 q 0.184658,0 0.312816,0.03169 0.128158,0.03032 0.227377,0.09646 0.117133,0.07855 0.180523,0.195682 0.06477,0.117133 0.06477,0.296279 z m -0.283877,0.0069 q 0,-0.106109 -0.03721,-0.184658 -0.03721,-0.07855 -0.112999,-0.128158 -0.06615,-0.04272 -0.151585,-0.06063 -0.08406,-0.01929 -0.213596,-0.01929 h -0.270097 v 0.819935 h 0.230133 q 0.165365,0 0.268719,-0.02894 0.103353,-0.03032 0.168121,-0.09509 0.06477,-0.06615 0.09095,-0.139182 0.02756,-0.07304 0.02756,-0.163987 z"
         style="stroke-width:0.264583"
         id="path2677" />
    </g>
    <g
       aria-label="DECAY"
       id="text2547"
       style="font-size:2.82223px;line-height:1.25;font-family:sans-serif;stroke-width:0.264583"
       transform="translate(0,-2.6458334)">
      <path
         d="m 108.85138,57.966437 q 0,0.279742 -0.12265,0.507119 -0.12126,0.227377 -0.32384,0.352779 -0.14056,0.08682 -0.31419,0.125402 -0.17226,0.03858 -0.45475,0.03858 h -0.51815 v -2.051904 h 0.51263 q 0.30042,0 0.47681,0.0441 0.17776,0.04272 0.30041,0.118511 0.20946,0.130914 0.3266,0.348645 0.11713,0.217731 0.11713,0.516766 z m -0.28526,-0.0041 q 0,-0.241158 -0.0841,-0.406523 -0.0841,-0.165365 -0.2508,-0.26045 -0.12127,-0.0689 -0.25769,-0.09508 -0.13643,-0.02756 -0.3266,-0.02756 h -0.25632 v 1.58337 h 0.25632 q 0.19706,0 0.34313,-0.02894 0.14745,-0.02894 0.2701,-0.107487 0.15296,-0.09784 0.22875,-0.257694 0.0772,-0.159853 0.0772,-0.399632 z"
         style="stroke-width:0.264583"
         id="path2680" />
      <path
         d="m 110.64421,58.990322 h -1.35186 v -2.051904 h 1.35186 v 0.242535 h -1.07901 v 0.562241 h 1.07901 v 0.242535 h -1.07901 v 0.762058 h 1.07901 z"
         style="stroke-width:0.264583"
         id="path2682" />
      <path
         d="m 112.66167,58.841494 q -0.0758,0.03307 -0.13781,0.06201 -0.0606,0.02894 -0.15985,0.06063 -0.0841,0.02618 -0.18328,0.0441 -0.0978,0.01929 -0.21635,0.01929 -0.22325,0 -0.40653,-0.06201 -0.1819,-0.06339 -0.31695,-0.19706 -0.13229,-0.130914 -0.2067,-0.332108 -0.0744,-0.202572 -0.0744,-0.469912 0,-0.25356 0.0717,-0.453376 0.0717,-0.199816 0.20671,-0.33762 0.13091,-0.13367 0.31557,-0.20395 0.18604,-0.07028 0.41203,-0.07028 0.16537,0 0.32936,0.03996 0.16536,0.03996 0.36656,0.14056 v 0.32384 h -0.0207 q -0.16949,-0.141939 -0.33624,-0.206707 -0.16674,-0.06477 -0.35691,-0.06477 -0.15572,0 -0.28112,0.05099 -0.12402,0.04961 -0.22187,0.155719 -0.0951,0.103353 -0.14882,0.261828 -0.0524,0.157097 -0.0524,0.363803 0,0.216352 0.0579,0.372071 0.0592,0.155719 0.15158,0.25356 0.0965,0.101975 0.22462,0.151585 0.12954,0.04823 0.27286,0.04823 0.19706,0 0.36931,-0.06752 0.17226,-0.06752 0.32246,-0.202572 h 0.0193 z"
         style="stroke-width:0.264583"
         id="path2684" />
      <path
         d="m 114.66534,58.990322 h -0.29077 l -0.20119,-0.571887 h -0.88746 l -0.2012,0.571887 h -0.27698 l 0.7469,-2.051904 h 0.3638 z m -0.57602,-0.806154 -0.35967,-1.007349 -0.36105,1.007349 z"
         style="stroke-width:0.264583"
         id="path2686" />
      <path
         d="m 116.31899,56.938418 -0.7221,1.152043 v 0.899861 h -0.27285 V 58.1194 l -0.72485,-1.180982 h 0.30179 l 0.56087,0.917776 0.56637,-0.917776 z"
         style="stroke-width:0.264583"
         id="path2688" />
    </g>
    <g
       aria-label="LEVEL"
       id="text2551"
       style="font-size:2.82223px;line-height:1.25;font-family:sans-serif;stroke-width:0.264583"
       transform="translate(0,-2.6458334)">
      <path
         d="m 129.20088,58.990322 h -1.29812 v -2.051904 h 0.27285 v 1.809369 h 1.02527 z"
         style="stroke-width:0.264583"
         id="path2691" />
      <path
         d="m 130.82559,58.990322 h -1.35186 v -2.051904 h 1.35186 v 0.242535 h -1.07901 v 0.562241 h 1.07901 v 0.242535 h -1.07901 v 0.762058 h 1.07901 z"
         style="stroke-width:0.264583"
         id="path2693" />
      <path
         d="m 132.87611,56.938418 -0.7469,2.051904 h -0.3638 l -0.7469,-2.051904 h 0.29215 l 0.64354,1.805235 0.64355,-1.805235 z"
         style="stroke-width:0.264583"
         id="path2695" />
      <path
         d="m 134.53941,58.990322 h -1.35186 v -2.051904 h 1.35186 v 0.242535 h -1.07901 v 0.562241 h 1.07901 v 0.242535 h -1.07901 v 0.762058 h 1.07901 z"
         style="stroke-width:0.264583"
         id="path2697" />
      <path
         d="m 136.27023,58.990322 h -1.29811 v -2.051904 h 0.27285 v 1.809369 h 1.02526 z"
         style="stroke-width:0.264583"
         id="path2699" />
    </g>
    <g
       aria-label="CHARACTER"
       id="text2555"
       style="font-size:2.82223px;line-height:1.25;font-family:sans-serif;stroke-width:0.264583"
       transform="translate(0,-2.6458334)">
      <path
         d="m 43.742071,58.658236 q -0.07579,0.03307 -0.137805,0.06201 -0.06063,0.02894 -0.159852,0.06063 -0.08406,0.02618 -0.18328,0.0441 -0.09784,0.01929 -0.216353,0.01929 -0.223242,0 -0.406522,-0.06201 -0.181902,-0.06339 -0.31695,-0.19706 -0.132292,-0.130914 -0.206706,-0.332108 -0.07441,-0.202572 -0.07441,-0.469912 0,-0.25356 0.07166,-0.453376 0.07166,-0.199816 0.206706,-0.33762 0.130914,-0.13367 0.315572,-0.203951 0.186035,-0.07028 0.412034,-0.07028 0.165365,0 0.329352,0.03996 0.165365,0.03996 0.36656,0.14056 v 0.32384 H 43.7214 q -0.169499,-0.141939 -0.336242,-0.206707 -0.166743,-0.06477 -0.356913,-0.06477 -0.155719,0 -0.281121,0.05099 -0.124024,0.04961 -0.221864,0.155719 -0.09509,0.103353 -0.148829,0.261828 -0.05237,0.157097 -0.05237,0.363803 0,0.216352 0.05788,0.372071 0.05926,0.155719 0.151585,0.25356 0.09646,0.101975 0.224621,0.151585 0.129536,0.04823 0.272852,0.04823 0.19706,0 0.369315,-0.06752 0.172255,-0.06752 0.322462,-0.202572 h 0.01929 z"
         style="stroke-width:0.264583"
         id="path2702" />
      <path
         d="M 45.697512,58.807064 H 45.42466 v -1.004593 h -1.023885 v 1.004593 h -0.272853 v -2.051905 h 0.272853 v 0.804777 h 1.023885 v -0.804777 h 0.272852 z"
         style="stroke-width:0.264583"
         id="path2704" />
      <path
         d="M 47.86655,58.807064 H 47.575784 L 47.374589,58.235177 H 46.48713 l -0.201194,0.571887 H 46.00895 l 0.746899,-2.051905 h 0.363803 z m -0.576021,-0.806155 -0.359669,-1.007348 -0.361047,1.007348 z"
         style="stroke-width:0.264583"
         id="path2706" />
      <path
         d="M 49.875736,58.807064 H 49.521579 L 48.835314,57.991263 H 48.45084 v 0.815801 h -0.272852 v -2.051905 h 0.574643 q 0.186036,0 0.31006,0.02481 0.124024,0.02343 0.223243,0.08544 0.111621,0.07028 0.173633,0.177767 0.06339,0.106109 0.06339,0.270096 0,0.221865 -0.111621,0.372072 -0.111622,0.148828 -0.307304,0.224621 z m -0.638034,-1.474505 q 0,-0.0882 -0.03169,-0.155719 -0.03032,-0.0689 -0.101975,-0.115755 -0.05926,-0.03996 -0.14056,-0.05512 -0.08131,-0.01654 -0.191548,-0.01654 H 48.45084 v 0.774459 h 0.275609 q 0.129536,0 0.225999,-0.02205 0.09646,-0.02343 0.163987,-0.08544 0.06201,-0.05788 0.09095,-0.132292 0.03032,-0.07579 0.03032,-0.191548 z"
         style="stroke-width:0.264583"
         id="path2708" />
      <path
         d="M 51.758141,58.807064 H 51.467374 L 51.26618,58.235177 h -0.887459 l -0.201194,0.571887 H 49.90054 l 0.746899,-2.051905 h 0.363803 z m -0.576022,-0.806155 -0.359668,-1.007348 -0.361048,1.007348 z"
         style="stroke-width:0.264583"
         id="path2710" />
      <path
         d="m 53.654327,58.658236 q -0.07579,0.03307 -0.137804,0.06201 -0.06063,0.02894 -0.159853,0.06063 -0.08406,0.02618 -0.18328,0.0441 -0.09784,0.01929 -0.216352,0.01929 -0.223243,0 -0.406523,-0.06201 -0.181901,-0.06339 -0.316949,-0.19706 -0.132293,-0.130914 -0.206707,-0.332108 -0.07441,-0.202572 -0.07441,-0.469912 0,-0.25356 0.07166,-0.453376 0.07166,-0.199816 0.206706,-0.33762 0.130914,-0.13367 0.315572,-0.203951 0.186036,-0.07028 0.412035,-0.07028 0.165365,0 0.329352,0.03996 0.165365,0.03996 0.366559,0.14056 v 0.32384 h -0.02067 q -0.169499,-0.141939 -0.336242,-0.206707 -0.166743,-0.06477 -0.356913,-0.06477 -0.155719,0 -0.28112,0.05099 -0.124024,0.04961 -0.221865,0.155719 -0.09509,0.103353 -0.148829,0.261828 -0.05237,0.157097 -0.05237,0.363803 0,0.216352 0.05788,0.372071 0.05926,0.155719 0.151585,0.25356 0.09646,0.101975 0.224621,0.151585 0.129536,0.04823 0.272852,0.04823 0.19706,0 0.369315,-0.06752 0.172256,-0.06752 0.322462,-0.202572 h 0.01929 z"
         style="stroke-width:0.264583"
         id="path2712" />
      <path
         d="m 55.503659,56.997695 h -0.733118 v 1.809369 H 54.497689 V 56.997695 H 53.76457 v -0.242536 h 1.739089 z"
         style="stroke-width:0.264583"
         id="path2714" />
      <path
         d="m 57.131127,58.807064 h -1.351859 v -2.051905 h 1.351859 v 0.242536 H 56.05212 v 0.562241 h 1.079007 v 0.242535 H 56.05212 v 0.762058 h 1.079007 z"
         style="stroke-width:0.264583"
         id="path2716" />
      <path
         d="m 59.26158,58.807064 h -0.354156 l -0.686265,-0.815801 h -0.384474 v 0.815801 h -0.272852 v -2.051905 h 0.574643 q 0.186036,0 0.31006,0.02481 0.124023,0.02343 0.223242,0.08544 0.111622,0.07028 0.173634,0.177767 0.06339,0.106109 0.06339,0.270096 0,0.221865 -0.111622,0.372072 -0.111621,0.148828 -0.307303,0.224621 z m -0.638033,-1.474505 q 0,-0.0882 -0.03169,-0.155719 -0.03032,-0.0689 -0.101975,-0.115755 -0.05926,-0.03996 -0.14056,-0.05512 -0.08131,-0.01654 -0.191548,-0.01654 H 57.83669 v 0.774459 h 0.275608 q 0.129536,0 0.225999,-0.02205 0.09646,-0.02343 0.163987,-0.08544 0.06201,-0.05788 0.09095,-0.132292 0.03032,-0.07579 0.03032,-0.191548 z"
         style="stroke-width:0.264583"
         id="path2718" />
    </g>
    <g
       aria-label="LP "
       id="text2567"
       style="font-size:2.82223px;line-height:1.25;font-family:sans-serif;stroke-width:0.264583"
       transform="translate(0,-2.6458334)">
      <path
         d="m 71.003671,101.85287 h -1.298116 v -2.051907 h 0.272853 v 1.809367 h 1.025263 z"
         style="stroke-width:0.264583"
         id="path2730" />
      <path
         d="m 72.618736,100.42108 q 0,0.13643 -0.04823,0.25356 -0.04685,0.11576 -0.132292,0.2012 -0.10611,0.1061 -0.250804,0.15985 -0.144694,0.0524 -0.365181,0.0524 h -0.272852 v 0.76482 h -0.272853 v -2.051907 h 0.556729 q 0.184658,0 0.312816,0.03169 0.128158,0.03032 0.227377,0.09646 0.117133,0.07855 0.180523,0.195677 0.06477,0.11714 0.06477,0.29628 z m -0.283876,0.007 q 0,-0.10611 -0.03721,-0.18466 -0.03721,-0.0785 -0.112999,-0.12815 -0.06615,-0.0427 -0.151585,-0.0606 -0.08406,-0.0193 -0.213596,-0.0193 h -0.270096 v 0.81993 h 0.230133 q 0.165365,0 0.268718,-0.0289 0.103353,-0.0303 0.168121,-0.0951 0.06477,-0.0661 0.09095,-0.13918 0.02756,-0.073 0.02756,-0.16399 z"
         style="stroke-width:0.264583"
         id="path2732" />
    </g>
    <g
       aria-label="HP"
       id="text2571"
       style="font-size:2.82223px;line-height:1.25;font-family:sans-serif;stroke-width:0.264583"
       transform="translate(0,-2.6458334)">
      <path
         d="m 91.222586,101.79013 h -0.272852 v -1.00459 h -1.023885 v 1.00459 h -0.272853 v -2.051904 h 0.272853 V 100.543 h 1.023885 v -0.804774 h 0.272852 z"
         style="stroke-width:0.264583"
         id="path2735" />
      <path
         d="m 93.116016,100.35834 q 0,0.13643 -0.04823,0.25356 -0.04685,0.11576 -0.132292,0.2012 -0.10611,0.10611 -0.250804,0.15985 -0.144695,0.0524 -0.365181,0.0524 h -0.272853 v 0.76481 h -0.272852 v -2.051904 h 0.556729 q 0.184658,0 0.312816,0.03169 0.128158,0.03032 0.227377,0.09646 0.117133,0.07855 0.180523,0.195684 0.06477,0.11713 0.06477,0.29627 z m -0.283877,0.007 q 0,-0.10611 -0.03721,-0.18466 -0.03721,-0.0786 -0.112999,-0.12816 -0.06615,-0.0427 -0.151585,-0.06063 -0.08406,-0.01929 -0.213596,-0.01929 h -0.270097 v 0.81994 h 0.230133 q 0.165365,0 0.268719,-0.0289 0.103353,-0.0303 0.168121,-0.0951 0.06477,-0.0661 0.09095,-0.13918 0.02756,-0.073 0.02756,-0.16398 z"
         style="stroke-width:0.264583"
         id="path2737" />
    </g>
    <g
       aria-label="DECAY"
       id="text2575"
       style="font-size:2.82223px;line-height:1.25;font-family:sans-serif;stroke-width:0.264583"
       transform="translate(0,-2.6458334)">
      <path
         d="m 108.85138,100.82898 q 0,0.27974 -0.12265,0.50712 -0.12126,0.22738 -0.32384,0.35278 -0.14056,0.0868 -0.31419,0.1254 -0.17226,0.0386 -0.45475,0.0386 h -0.51815 v -2.051907 h 0.51263 q 0.30042,0 0.47681,0.0441 0.17776,0.04272 0.30041,0.118511 0.20946,0.130916 0.3266,0.348646 0.11713,0.21773 0.11713,0.51676 z m -0.28526,-0.004 q 0,-0.24116 -0.0841,-0.40652 -0.0841,-0.16537 -0.2508,-0.26045 -0.12127,-0.0689 -0.25769,-0.0951 -0.13643,-0.0276 -0.3266,-0.0276 h -0.25632 v 1.58337 h 0.25632 q 0.19706,0 0.34313,-0.0289 0.14745,-0.0289 0.2701,-0.10749 0.15296,-0.0978 0.22875,-0.25769 0.0772,-0.15985 0.0772,-0.39963 z"
         style="stroke-width:0.264583"
         id="path2740" />
      <path
         d="m 110.64421,101.85287 h -1.35186 v -2.051907 h 1.35186 v 0.242537 h -1.07901 v 0.56224 h 1.07901 v 0.24253 h -1.07901 v 0.76206 h 1.07901 z"
         style="stroke-width:0.264583"
         id="path2742" />
      <path
         d="m 112.66167,101.70404 q -0.0758,0.0331 -0.13781,0.062 -0.0606,0.0289 -0.15985,0.0606 -0.0841,0.0262 -0.18328,0.0441 -0.0978,0.0193 -0.21635,0.0193 -0.22325,0 -0.40653,-0.062 -0.1819,-0.0634 -0.31695,-0.19706 -0.13229,-0.13091 -0.2067,-0.33211 -0.0744,-0.20257 -0.0744,-0.46991 0,-0.25356 0.0717,-0.45337 0.0717,-0.19982 0.20671,-0.33762 0.13091,-0.133674 0.31557,-0.203954 0.18604,-0.07028 0.41203,-0.07028 0.16537,0 0.32936,0.03996 0.16536,0.03996 0.36656,0.14056 v 0.323844 h -0.0207 q -0.16949,-0.14194 -0.33624,-0.20671 -0.16674,-0.06477 -0.35691,-0.06477 -0.15572,0 -0.28112,0.05099 -0.12402,0.0496 -0.22187,0.15572 -0.0951,0.10335 -0.14882,0.26183 -0.0524,0.1571 -0.0524,0.3638 0,0.21635 0.0579,0.37207 0.0592,0.15572 0.15158,0.25356 0.0965,0.10198 0.22462,0.15159 0.12954,0.0482 0.27286,0.0482 0.19706,0 0.36931,-0.0675 0.17226,-0.0675 0.32246,-0.20258 h 0.0193 z"
         style="stroke-width:0.264583"
         id="path2744" />
      <path
         d="m 114.66534,101.85287 h -0.29077 l -0.20119,-0.57189 h -0.88746 l -0.2012,0.57189 h -0.27698 l 0.7469,-2.051907 h 0.3638 z m -0.57602,-0.80616 -0.35967,-1.00735 -0.36105,1.00735 z"
         style="stroke-width:0.264583"
         id="path2746" />
      <path
         d="m 116.31899,99.800963 -0.7221,1.152047 v 0.89986 h -0.27285 v -0.87093 l -0.72485,-1.180977 h 0.30179 l 0.56087,0.917777 0.56637,-0.917777 z"
         style="stroke-width:0.264583"
         id="path2748" />
    </g>
    <g
       aria-label="LEVEL"
       id="text2579"
       style="font-size:2.82223px;line-height:1.25;font-family:sans-serif;stroke-width:0.264583"
       transform="translate(0,-2.6458334)">
      <path
         d="m 129.20088,101.85287 h -1.29812 v -2.051907 h 0.27285 v 1.809367 h 1.02527 z"
         style="stroke-width:0.264583"
         id="path2751" />
      <path
         d="m 130.82559,101.85287 h -1.35186 v -2.051907 h 1.35186 v 0.242537 h -1.07901 v 0.56224 h 1.07901 v 0.24253 h -1.07901 v 0.76206 h 1.07901 z"
         style="stroke-width:0.264583"
         id="path2753" />
      <path
         d="m 132.87611,99.800963 -0.7469,2.051907 h -0.3638 l -0.7469,-2.051907 h 0.29215 l 0.64354,1.805237 0.64355,-1.805237 z"
         style="stroke-width:0.264583"
         id="path2755" />
      <path
         d="m 134.53941,101.85287 h -1.35186 v -2.051907 h 1.35186 v 0.242537 h -1.07901 v 0.56224 h 1.07901 v 0.24253 h -1.07901 v 0.76206 h 1.07901 z"
         style="stroke-width:0.264583"
         id="path2757" />
      <path
         d="m 136.27023,101.85287 h -1.29811 v -2.051907 h 0.27285 v 1.809367 h 1.02526 z"
         style="stroke-width:0.264583"
         id="path2759" />
    </g>
    <g
       aria-label="CHARACTER"
       id="text2583"
       style="font-size:2.82223px;line-height:1.25;font-family:sans-serif;stroke-width:0.264583"
       transform="translate(0,-2.6458334)">
      <path
         d="m 43.742071,101.52077 q -0.07579,0.0331 -0.137805,0.062 -0.06063,0.0289 -0.159852,0.0606 -0.08406,0.0262 -0.18328,0.0441 -0.09784,0.0193 -0.216353,0.0193 -0.223242,0 -0.406522,-0.062 -0.181902,-0.0634 -0.31695,-0.19706 -0.132292,-0.13091 -0.206706,-0.33211 -0.07441,-0.20257 -0.07441,-0.46991 0,-0.25356 0.07166,-0.45338 0.07166,-0.199813 0.206706,-0.337618 0.130914,-0.13367 0.315572,-0.20395 0.186035,-0.07028 0.412034,-0.07028 0.165365,0 0.329352,0.03996 0.165365,0.03996 0.36656,0.140561 v 0.323847 H 43.7214 q -0.169499,-0.141946 -0.336242,-0.206714 -0.166743,-0.06477 -0.356913,-0.06477 -0.155719,0 -0.281121,0.05099 -0.124024,0.04961 -0.221864,0.155724 -0.09509,0.10335 -0.148829,0.26183 -0.05237,0.15709 -0.05237,0.3638 0,0.21635 0.05788,0.37207 0.05926,0.15572 0.151585,0.25356 0.09646,0.10197 0.224621,0.15158 0.129536,0.0482 0.272852,0.0482 0.19706,0 0.369315,-0.0675 0.172255,-0.0675 0.322462,-0.20257 h 0.01929 z"
         style="stroke-width:0.264583"
         id="path2762" />
      <path
         d="M 45.697512,101.66959 H 45.42466 V 100.665 h -1.023885 v 1.00459 h -0.272853 v -2.051901 h 0.272853 v 0.804781 h 1.023885 v -0.804781 h 0.272852 z"
         style="stroke-width:0.264583"
         id="path2764" />
      <path
         d="m 47.86655,101.66959 h -0.290766 l -0.201195,-0.57188 H 46.48713 l -0.201194,0.57188 H 46.00895 l 0.746899,-2.051901 h 0.363803 z m -0.576021,-0.80615 -0.359669,-1.00735 -0.361047,1.00735 z"
         style="stroke-width:0.264583"
         id="path2766" />
      <path
         d="m 49.875736,101.66959 h -0.354157 l -0.686265,-0.8158 H 48.45084 v 0.8158 h -0.272852 v -2.051901 h 0.574643 q 0.186036,0 0.31006,0.02481 0.124024,0.02343 0.223243,0.08544 0.111621,0.07028 0.173633,0.177767 0.06339,0.106114 0.06339,0.270104 0,0.22186 -0.111621,0.37207 -0.111622,0.14883 -0.307304,0.22462 z m -0.638034,-1.4745 q 0,-0.0882 -0.03169,-0.15572 -0.03032,-0.0689 -0.101975,-0.115755 -0.05926,-0.03996 -0.14056,-0.05512 -0.08131,-0.01654 -0.191548,-0.01654 H 48.45084 v 0.774465 h 0.275609 q 0.129536,0 0.225999,-0.022 0.09646,-0.0234 0.163987,-0.0854 0.06201,-0.0579 0.09095,-0.13229 0.03032,-0.0758 0.03032,-0.19155 z"
         style="stroke-width:0.264583"
         id="path2768" />
      <path
         d="m 51.758141,101.66959 h -0.290767 l -0.201194,-0.57188 h -0.887459 l -0.201194,0.57188 H 49.90054 l 0.746899,-2.051901 h 0.363803 z m -0.576022,-0.80615 -0.359668,-1.00735 -0.361048,1.00735 z"
         style="stroke-width:0.264583"
         id="path2770" />
      <path
         d="m 53.654327,101.52077 q -0.07579,0.0331 -0.137804,0.062 -0.06063,0.0289 -0.159853,0.0606 -0.08406,0.0262 -0.18328,0.0441 -0.09784,0.0193 -0.216352,0.0193 -0.223243,0 -0.406523,-0.062 -0.181901,-0.0634 -0.316949,-0.19706 -0.132293,-0.13091 -0.206707,-0.33211 -0.07441,-0.20257 -0.07441,-0.46991 0,-0.25356 0.07166,-0.45338 0.07166,-0.199813 0.206706,-0.337618 0.130914,-0.13367 0.315572,-0.20395 0.186036,-0.07028 0.412035,-0.07028 0.165365,0 0.329352,0.03996 0.165365,0.03996 0.366559,0.140561 v 0.323847 h -0.02067 q -0.169499,-0.141946 -0.336242,-0.206714 -0.166743,-0.06477 -0.356913,-0.06477 -0.155719,0 -0.28112,0.05099 -0.124024,0.04961 -0.221865,0.155724 -0.09509,0.10335 -0.148829,0.26183 -0.05237,0.15709 -0.05237,0.3638 0,0.21635 0.05788,0.37207 0.05926,0.15572 0.151585,0.25356 0.09646,0.10197 0.224621,0.15158 0.129536,0.0482 0.272852,0.0482 0.19706,0 0.369315,-0.0675 0.172256,-0.0675 0.322462,-0.20257 h 0.01929 z"
         style="stroke-width:0.264583"
         id="path2772" />
      <path
         d="m 55.503659,99.860225 h -0.733118 v 1.809365 H 54.497689 V 99.860225 H 53.76457 v -0.242536 h 1.739089 z"
         style="stroke-width:0.264583"
         id="path2774" />
      <path
         d="m 57.131127,101.66959 h -1.351859 v -2.051901 h 1.351859 v 0.242536 H 56.05212 v 0.562245 h 1.079007 V 100.665 H 56.05212 v 0.76206 h 1.079007 z"
         style="stroke-width:0.264583"
         id="path2776" />
      <path
         d="m 59.26158,101.66959 h -0.354156 l -0.686265,-0.8158 h -0.384474 v 0.8158 h -0.272852 v -2.051901 h 0.574643 q 0.186036,0 0.31006,0.02481 0.124023,0.02343 0.223242,0.08544 0.111622,0.07028 0.173634,0.177767 0.06339,0.106114 0.06339,0.270104 0,0.22186 -0.111622,0.37207 -0.111621,0.14883 -0.307303,0.22462 z m -0.638033,-1.4745 q 0,-0.0882 -0.03169,-0.15572 -0.03032,-0.0689 -0.101975,-0.115755 -0.05926,-0.03996 -0.14056,-0.05512 -0.08131,-0.01654 -0.191548,-0.01654 H 57.83669 v 0.774465 h 0.275608 q 0.129536,0 0.225999,-0.022 0.09646,-0.0234 0.163987,-0.0854 0.06201,-0.0579 0.09095,-0.13229 0.03032,-0.0758 0.03032,-0.19155 z"
         style="stroke-width:0.264583"
         id="path2778" />
    </g>
    <g
       aria-label="TONE"
       id="text2611"
       style="font-size:2.82223px;line-height:1.25;font-family:sans-serif;stroke-width:0.264583"
       transform="translate(0,-2.6458334)">
      <path
         d="m 28.518851,54.409312 h -0.733118 v 1.809369 h -0.272852 v -1.809369 h -0.733119 v -0.242535 h 1.739089 z"
         style="stroke-width:0.264583"
         id="path2617" />
      <path
         d="m 30.255184,54.402422 q 0.125402,0.137804 0.191548,0.33762 0.06752,0.199816 0.06752,0.453376 0,0.25356 -0.0689,0.454754 -0.06752,0.199816 -0.19017,0.333486 -0.12678,0.139182 -0.300413,0.209462 -0.172255,0.07028 -0.39412,0.07028 -0.216352,0 -0.39412,-0.07166 -0.176389,-0.07166 -0.300413,-0.208084 -0.124024,-0.136426 -0.191548,-0.334864 -0.06615,-0.198438 -0.06615,-0.453376 0,-0.250804 0.06615,-0.449242 0.06615,-0.199816 0.192926,-0.341754 0.121268,-0.135048 0.300413,-0.206706 0.180524,-0.07166 0.392742,-0.07166 0.220487,0 0.395498,0.07304 0.17639,0.07166 0.299035,0.205328 z m -0.0248,0.790996 q 0,-0.399632 -0.179146,-0.615985 -0.179145,-0.21773 -0.489205,-0.21773 -0.312815,0 -0.491961,0.21773 -0.177767,0.216353 -0.177767,0.615985 0,0.403766 0.181901,0.618741 0.181902,0.213596 0.487827,0.213596 0.305926,0 0.486449,-0.213596 0.181902,-0.214975 0.181902,-0.618741 z"
         style="stroke-width:0.264583"
         id="path2619" />
      <path
         d="m 32.512417,56.218681 h -0.33762 l -0.972898,-1.835552 v 1.835552 h -0.254937 v -2.051904 h 0.423058 l 0.887459,1.675699 v -1.675699 h 0.254938 z"
         style="stroke-width:0.264583"
         id="path2621" />
      <path
         d="m 34.409981,56.218681 h -1.351859 v -2.051904 h 1.351859 v 0.242535 h -1.079007 v 0.562241 h 1.079007 v 0.242536 h -1.079007 v 0.762057 h 1.079007 z"
         style="stroke-width:0.264583"
         id="path2623" />
    </g>
    <g
       aria-label="TONE"
       id="text2615"
       style="font-size:2.82223px;line-height:1.25;font-family:sans-serif;stroke-width:0.264583"
       transform="translate(0,-2.6458334)">
      <path
         d="m 28.518851,97.242595 h -0.733118 v 1.809369 h -0.272852 v -1.809369 h -0.733119 v -0.242536 h 1.739089 z"
         style="stroke-width:0.264583"
         id="path2721" />
      <path
         d="m 30.255184,97.235704 q 0.125402,0.137805 0.191548,0.337621 0.06752,0.199816 0.06752,0.453376 0,0.253559 -0.0689,0.454753 -0.06752,0.199816 -0.19017,0.333487 -0.12678,0.139182 -0.300413,0.209462 -0.172255,0.07028 -0.39412,0.07028 -0.216352,0 -0.39412,-0.07166 -0.176389,-0.07166 -0.300413,-0.208084 -0.124024,-0.136427 -0.191548,-0.334865 -0.06615,-0.198438 -0.06615,-0.453375 0,-0.250804 0.06615,-0.449242 0.06615,-0.199816 0.192926,-0.341755 0.121268,-0.135048 0.300413,-0.206706 0.180524,-0.07166 0.392742,-0.07166 0.220487,0 0.395498,0.07304 0.17639,0.07166 0.299035,0.205328 z m -0.0248,0.790997 q 0,-0.399633 -0.179146,-0.615985 -0.179145,-0.217731 -0.489205,-0.217731 -0.312815,0 -0.491961,0.217731 -0.177767,0.216352 -0.177767,0.615985 0,0.403766 0.181901,0.61874 0.181902,0.213597 0.487827,0.213597 0.305926,0 0.486449,-0.213597 0.181902,-0.214974 0.181902,-0.61874 z"
         style="stroke-width:0.264583"
         id="path2723" />
      <path
         d="m 32.512417,99.051964 h -0.33762 l -0.972898,-1.835552 v 1.835552 h -0.254937 v -2.051905 h 0.423058 l 0.887459,1.675699 v -1.675699 h 0.254938 z"
         style="stroke-width:0.264583"
         id="path2725" />
      <path
         d="m 34.409981,99.051964 h -1.351859 v -2.051905 h 1.351859 v 0.242536 h -1.079007 v 0.562241 h 1.079007 v 0.242535 h -1.079007 v 0.762057 h 1.079007 z"
         style="stroke-width:0.264583"
         id="path2727" />
    </g>
    <text
       xml:space="preserve"
       style="font-size:2.82223px;line-height:1.25;font-family:sans-serif;stroke-width:0.264583"
       x="151.42436"
       y="98.605423"
       id="text2818"><tspan
         sodipodi:role="line"
         id="tspan2816"
         x="151.42436"
         y="98.605423"
         style="stroke-width:0.264583">TRIG</tspan></text>
    <g
       aria-label="OUT"
       id="text2826"
       style="font-size:2.82223px;line-height:1.25;font-family:sans-serif;fill:#ffffff;stroke-width:0.264583"
       transform="translate(0,33.337515)">
      <path
         d="m 153.58438,79.30028 q 0.1254,0.137804 0.19155,0.33762 0.0675,0.199816 0.0675,0.453376 0,0.253559 -0.0689,0.454754 -0.0675,0.199816 -0.19017,0.333486 -0.12678,0.139182 -0.30041,0.209462 -0.17226,0.07028 -0.39412,0.07028 -0.21636,0 -0.39412,-0.07166 -0.17639,-0.07166 -0.30042,-0.208084 -0.12402,-0.136426 -0.19154,-0.334864 -0.0661,-0.198438 -0.0661,-0.453376 0,-0.250804 0.0661,-0.449242 0.0661,-0.199816 0.19292,-0.341754 0.12127,-0.135049 0.30041,-0.206707 0.18053,-0.07166 0.39275,-0.07166 0.22048,0 0.39549,0.07304 0.17639,0.07166 0.29904,0.205329 z m -0.0248,0.790996 q 0,-0.399632 -0.17914,-0.615985 -0.17915,-0.217731 -0.48921,-0.217731 -0.31281,0 -0.49196,0.217731 -0.17776,0.216353 -0.17776,0.615985 0,0.403766 0.1819,0.618741 0.1819,0.213596 0.48782,0.213596 0.30593,0 0.48645,-0.213596 0.1819,-0.214975 0.1819,-0.618741 z"
         style="fill:#ffffff;stroke-width:0.264583"
         id="path2891" />
      <path
         d="m 155.82094,80.29247 q 0,0.223243 -0.0496,0.389986 -0.0482,0.165365 -0.15985,0.275608 -0.10611,0.104731 -0.24805,0.152963 -0.14194,0.04823 -0.33073,0.04823 -0.19292,0 -0.33624,-0.05099 -0.14332,-0.05099 -0.24116,-0.150207 -0.11162,-0.112999 -0.16123,-0.272852 -0.0482,-0.159853 -0.0482,-0.392742 V 79.06463 h 0.27285 v 1.241616 q 0,0.166743 0.0221,0.263206 0.0234,0.09646 0.0772,0.175012 0.0606,0.08957 0.16399,0.135048 0.10473,0.04548 0.2508,0.04548 0.14745,0 0.25081,-0.0441 0.10335,-0.04548 0.16536,-0.136426 0.0537,-0.07855 0.0758,-0.179146 0.0234,-0.101975 0.0234,-0.252182 v -1.248506 h 0.27285 z"
         style="fill:#ffffff;stroke-width:0.264583"
         id="path2893" />
      <path
         d="m 157.80532,79.30717 h -0.73312 v 1.809369 h -0.27285 V 79.30717 h -0.73312 v -0.242536 h 1.73909 z"
         style="fill:#ffffff;stroke-width:0.264583"
         id="path2895" />
    </g>
    <g
       aria-label="KICK"
       id="text1042"
       style="font-size:16.9333px;line-height:1.25;font-family:sans-serif;writing-mode:tb-rl;text-orientation:upright;display:inline;stroke-width:0.264583">
      <path
         d="m 160.26266,24.02438 h -2.12493 l -4.86998,-5.481825 -1.2237,1.306377 v 4.175448 h -1.6371 V 11.713011 h 1.6371 v 6.424401 l 5.97792,-6.424401 h 1.98437 l -5.49836,5.787749 z"
         style="font-size:16.9333px;writing-mode:tb-rl;text-orientation:upright;stroke-width:0.264583"
         id="path1202" />
      <path
         d="m 157.00912,40.957679 h -4.86171 V 39.70091 h 1.6123 v -9.797832 h -1.6123 V 28.64631 h 4.86171 v 1.256768 h -1.6123 v 9.797832 h 1.6123 z"
         style="font-size:16.9333px;writing-mode:tb-rl;text-orientation:upright;stroke-width:0.264583"
         id="path1204" />
      <path
         d="m 159.82858,56.998012 q -0.45475,0.198437 -0.82682,0.372069 -0.36381,0.173633 -0.95912,0.363802 -0.50436,0.157096 -1.09967,0.264583 -0.58704,0.115755 -1.29811,0.115755 -1.33945,0 -2.43912,-0.37207 -1.09141,-0.380338 -1.90169,-1.182354 -0.79375,-0.785481 -1.24023,-1.99264 -0.44649,-1.215427 -0.44649,-2.81946 0,-1.521352 0.42995,-2.720242 0.42995,-1.198891 1.24023,-2.025713 0.78548,-0.802016 1.89342,-1.223695 1.11621,-0.421679 2.4722,-0.421679 0.99219,0 1.9761,0.239778 0.99219,0.239778 2.19935,0.843358 v 1.94303 h -0.12403 q -1.01699,-0.851626 -2.01744,-1.240232 -1.00045,-0.388606 -2.14147,-0.388606 -0.9343,0 -1.68671,0.305924 -0.74414,0.297656 -1.33118,0.934308 -0.57051,0.620116 -0.89297,1.57096 -0.31419,0.942577 -0.31419,2.182809 0,1.298109 0.34726,2.232417 0.35553,0.934308 0.9095,1.521351 0.57878,0.611848 1.34772,0.909504 0.77722,0.289387 1.63711,0.289387 1.18235,0 2.21588,-0.405142 1.03353,-0.405143 1.93476,-1.215428 h 0.11576 z"
         style="font-size:16.9333px;writing-mode:tb-rl;text-orientation:upright;stroke-width:0.264583"
         id="path1206" />
      <path
         d="m 160.26266,74.824283 h -2.12493 l -4.86998,-5.481826 -1.2237,1.306378 v 4.175448 h -1.6371 V 62.512914 h 1.6371 v 6.424401 l 5.97792,-6.424401 h 1.98437 l -5.49836,5.787749 z"
         style="font-size:16.9333px;writing-mode:tb-rl;text-orientation:upright;stroke-width:0.264583"
         id="path1208" />
    </g>
    <g
       aria-label="JS"
       id="text1058"
       style="font-size:2.82223px;line-height:1.25;font-family:sans-serif;display:inline;stroke-width:0.264583">
      <path
         d="m 159.49289,83.482132 q 0,0.270096 -0.16536,0.416169 -0.16399,0.146072 -0.44097,0.146072 -0.0661,0 -0.17639,-0.0124 -0.11025,-0.01103 -0.18466,-0.02756 v -0.254938 h 0.0152 q 0.0565,0.01929 0.13918,0.03996 0.0827,0.02067 0.1695,0.02067 0.12678,0 0.20119,-0.02894 0.0758,-0.02894 0.11162,-0.08268 0.0372,-0.05512 0.0469,-0.135049 0.011,-0.07993 0.011,-0.184657 V 82.18126 h -0.43408 v -0.21773 h 0.70693 z"
         style="stroke-width:0.264583"
         id="path1211" />
      <path
         d="m 161.51448,83.429766 q 0,0.11989 -0.0565,0.237024 -0.0551,0.117133 -0.15572,0.198438 -0.11024,0.08819 -0.25769,0.137804 -0.14607,0.04961 -0.35278,0.04961 -0.22186,0 -0.39963,-0.04134 -0.17639,-0.04134 -0.35967,-0.122646 V 83.5469 h 0.0193 q 0.15572,0.129536 0.35967,0.199816 0.20395,0.07028 0.3831,0.07028 0.25356,0 0.39412,-0.09508 0.14193,-0.09509 0.14193,-0.253559 0,-0.136427 -0.0675,-0.201195 -0.0662,-0.06477 -0.20257,-0.100597 -0.10335,-0.02756 -0.22462,-0.04548 -0.11989,-0.01791 -0.25494,-0.04547 -0.27285,-0.05788 -0.40514,-0.19706 -0.13092,-0.140561 -0.13092,-0.365182 0,-0.257693 0.21773,-0.42168 0.21773,-0.165365 0.5526,-0.165365 0.21635,0 0.39687,0.04134 0.18053,0.04134 0.31971,0.101975 v 0.322462 h -0.0193 q -0.11714,-0.09922 -0.30869,-0.163987 -0.19016,-0.06615 -0.38998,-0.06615 -0.21911,0 -0.35278,0.09095 -0.13229,0.09095 -0.13229,0.234268 0,0.128158 0.0661,0.201194 0.0662,0.07304 0.23289,0.111621 0.0882,0.01929 0.25081,0.04685 0.16261,0.02756 0.27561,0.0565 0.22875,0.06063 0.34451,0.18328 0.11575,0.122646 0.11575,0.343132 z"
         style="stroke-width:0.264583"
         id="path1213" />
    </g>
  </g>
  <g
     inkscape:groupmode="layer"
     id="layer2"
     inkscape:label="components"
     style="display:inline">
    <circle
       style="fill:#ff0000;fill-opacity:1;stroke:none;stroke-width:0.264583;stroke-opacity:1"
       id="path2194"
       cx="30.48"
       cy="21.416639"
       r="5.0555511"
       inkscape:label="low_fundamental" />
    <circle
       style="fill:#00ff00;fill-opacity:1;stroke:none;stroke-width:0.264583;stroke-opacity:1"
       id="path2200"
       cx="30.48"
       cy="33.463512"
       r="2.4834287"
       inkscape:label="low_fundamental" />
    <path
       style="fill:none;stroke:#000000;stroke-linecap:butt;stroke-linejoin:miter;stroke-opacity:1"
       d="m 40.64,25.432263 v 0"
       id="path2210" />
    <circle
       style="fill:#ff0000;fill-opacity:1;stroke:none;stroke-width:0.189417;stroke-opacity:1"
       id="circle2232"
       cx="50.799999"
       cy="21.416639"
       r="3.6193056"
       inkscape:label="low_partials" />
    <circle
       style="fill:#00ff00;fill-opacity:1;stroke:none;stroke-width:0.264583;stroke-opacity:1"
       id="circle2234"
       cx="50.799999"
       cy="33.463512"
       r="2.4834287"
       inkscape:label="low_partials" />
    <circle
       style="fill:#ff0000;fill-opacity:1;stroke:none;stroke-width:0.189417;stroke-opacity:1"
       id="use2247"
       cx="71.120003"
       cy="21.416639"
       r="3.6193056"
       inkscape:label="low_spread" />
    <circle
       style="fill:#00ff00;fill-opacity:1;stroke:none;stroke-width:0.264583;stroke-opacity:1"
       id="use2249"
       cx="71.119995"
       cy="33.463512"
       r="2.4834287"
       inkscape:label="low_spread" />
    <circle
       style="fill:#ff0000;fill-opacity:1;stroke:none;stroke-width:0.189417;stroke-opacity:1"
       id="use2253"
       cx="91.440002"
       cy="21.416639"
       r="3.6193056"
       inkscape:label="low_bend" />
    <circle
       style="fill:#00ff00;fill-opacity:1;stroke:none;stroke-width:0.264583;stroke-opacity:1"
       id="use2255"
       cx="91.439995"
       cy="33.463512"
       r="2.4834287"
       inkscape:label="low_bend" />
    <circle
       style="fill:#ff0000;fill-opacity:1;stroke:none;stroke-width:0.189417;stroke-opacity:1"
       id="use2259"
       cx="111.76"
       cy="21.416639"
       r="3.6193056"
       inkscape:label="low_decay" />
    <circle
       style="fill:#00ff00;fill-opacity:1;stroke:none;stroke-width:0.264583;stroke-opacity:1"
       id="use2261"
       cx="111.75999"
       cy="33.463512"
       r="2.4834287"
       inkscape:label="low_decay" />
    <circle
       style="fill:#ff0000;fill-opacity:1;stroke:none;stroke-width:0.189417;stroke-opacity:1"
       id="use2271"
       cx="132.08"
       cy="21.416639"
       r="3.6193056"
       inkscape:label="low_level" />
    <circle
       style="fill:#00ff00;fill-opacity:1;stroke:none;stroke-width:0.264583;stroke-opacity:1"
       id="use2273"
       cx="132.07999"
       cy="33.463512"
       r="2.4834287"
       inkscape:label="low_level" />
    <circle
       style="fill:#ff0000;fill-opacity:1;stroke:none;stroke-width:0.264583;stroke-opacity:1"
       id="use2397"
       cx="30.48"
       cy="64.249924"
       r="5.0555511"
       inkscape:label="mid_tone" />
    <circle
       style="fill:#00ff00;fill-opacity:1;stroke:none;stroke-width:0.264583;stroke-opacity:1"
       id="use2399"
       cx="30.48"
       cy="76.296791"
       r="2.4834287"
       inkscape:label="mid_tone" />
    <path
       style="fill:none;stroke:#000000;stroke-linecap:butt;stroke-linejoin:miter;stroke-opacity:1"
       d="m 40.640001,68.265545 v 0"
       id="use2401" />
    <circle
       style="fill:#ff0000;fill-opacity:1;stroke:none;stroke-width:0.189417;stroke-opacity:1"
       id="use2405"
       cx="50.799999"
       cy="64.249924"
       r="3.6193056"
       inkscape:label="mid_character" />
    <circle
       style="fill:#00ff00;fill-opacity:1;stroke:none;stroke-width:0.264583;stroke-opacity:1"
       id="use2407"
       cx="50.799999"
       cy="76.296791"
       r="2.4834287"
       inkscape:label="mid_character" />
    <circle
       style="fill:#ff0000;fill-opacity:1;stroke:none;stroke-width:0.189417;stroke-opacity:1"
       id="use2411"
       cx="71.120003"
       cy="64.249924"
       r="3.6193056"
       inkscape:label="mid_LP" />
    <circle
       style="fill:#00ff00;fill-opacity:1;stroke:none;stroke-width:0.264583;stroke-opacity:1"
       id="use2413"
       cx="71.119995"
       cy="76.296791"
       r="2.4834287"
       inkscape:label="mid_LP" />
    <circle
       style="fill:#ff0000;fill-opacity:1;stroke:none;stroke-width:0.189417;stroke-opacity:1"
       id="use2417"
       cx="91.440002"
       cy="64.249924"
       r="3.6193056"
       inkscape:label="mid_HP" />
    <circle
       style="fill:#00ff00;fill-opacity:1;stroke:none;stroke-width:0.264583;stroke-opacity:1"
       id="use2419"
       cx="91.439995"
       cy="76.296791"
       r="2.4834287"
       inkscape:label="mid_HP" />
    <circle
       style="fill:#ff0000;fill-opacity:1;stroke:none;stroke-width:0.189417;stroke-opacity:1"
       id="use2423"
       cx="111.76"
       cy="64.249924"
       r="3.6193056"
       inkscape:label="mid_decay" />
    <circle
       style="fill:#00ff00;fill-opacity:1;stroke:none;stroke-width:0.264583;stroke-opacity:1"
       id="use2425"
       cx="111.75999"
       cy="76.296791"
       r="2.4834287"
       inkscape:label="mid_decay" />
    <circle
       style="fill:#ff0000;fill-opacity:1;stroke:none;stroke-width:0.189417;stroke-opacity:1"
       id="use2429"
       cx="132.08"
       cy="64.249924"
       r="3.6193056"
       inkscape:label="mid_level" />
    <circle
       style="fill:#00ff00;fill-opacity:1;stroke:none;stroke-width:0.264583;stroke-opacity:1"
       id="use2431"
       cx="132.07999"
       cy="76.296791"
       r="2.4834287"
       inkscape:label="mid_level" />
    <circle
       style="fill:#ff0000;fill-opacity:1;stroke:none;stroke-width:0.264583;stroke-opacity:1"
       id="use2435"
       cx="30.48"
       cy="107.08321"
       r="5.0555511"
       inkscape:label="head_tone" />
    <circle
       style="fill:#00ff00;fill-opacity:1;stroke:none;stroke-width:0.264583;stroke-opacity:1"
       id="use2437"
       cx="30.48"
       cy="119.13007"
       r="2.4834287"
       inkscape:label="head_tone" />
    <path
       style="fill:none;stroke:#000000;stroke-linecap:butt;stroke-linejoin:miter;stroke-opacity:1"
       d="m 40.640001,111.09882 v 0"
       id="use2439" />
    <circle
       style="fill:#ff0000;fill-opacity:1;stroke:none;stroke-width:0.189417;stroke-opacity:1"
       id="use2443"
       cx="50.799999"
       cy="107.08321"
       r="3.6193056"
       inkscape:label="head_character" />
    <circle
       style="fill:#00ff00;fill-opacity:1;stroke:none;stroke-width:0.264583;stroke-opacity:1"
       id="use2445"
       cx="50.799999"
       cy="119.13007"
       r="2.4834287"
       inkscape:label="head_character" />
    <circle
       style="fill:#ff0000;fill-opacity:1;stroke:none;stroke-width:0.189417;stroke-opacity:1"
       id="use2449"
       cx="71.120003"
       cy="107.08321"
       r="3.6193056"
       inkscape:label="head_LP" />
    <circle
       style="fill:#00ff00;fill-opacity:1;stroke:none;stroke-width:0.264583;stroke-opacity:1"
       id="use2451"
       cx="71.119995"
       cy="119.13007"
       r="2.4834287"
       inkscape:label="head_LP" />
    <circle
       style="fill:#ff0000;fill-opacity:1;stroke:none;stroke-width:0.189417;stroke-opacity:1"
       id="use2455"
       cx="91.440002"
       cy="107.08321"
       r="3.6193056"
       inkscape:label="head_HP" />
    <circle
       style="fill:#00ff00;fill-opacity:1;stroke:none;stroke-width:0.264583;stroke-opacity:1"
       id="use2457"
       cx="91.439995"
       cy="119.13007"
       r="2.4834287"
       inkscape:label="head_HP" />
    <circle
       style="fill:#ff0000;fill-opacity:1;stroke:none;stroke-width:0.189417;stroke-opacity:1"
       id="use2461"
       cx="111.76"
       cy="107.08321"
       r="3.6193056"
       inkscape:label="head_decay" />
    <circle
       style="fill:#00ff00;fill-opacity:1;stroke:none;stroke-width:0.264583;stroke-opacity:1"
       id="use2463"
       cx="111.75999"
       cy="119.13007"
       r="2.4834287"
       inkscape:label="head_decay" />
    <circle
       style="fill:#ff0000;fill-opacity:1;stroke:none;stroke-width:0.189417;stroke-opacity:1"
       id="use2467"
       cx="132.08"
       cy="107.0832"
       r="3.6193056"
       inkscape:label="head_level" />
    <circle
       style="fill:#00ff00;fill-opacity:1;stroke:none;stroke-width:0.264583;stroke-opacity:1"
       id="use2469"
       cx="132.07999"
       cy="119.13007"
       r="2.4834287"
       inkscape:label="head_level" />
    <circle
       style="fill:#00ff00;fill-opacity:1;stroke:none;stroke-width:0.264583;stroke-opacity:1"
       id="use2814"
       cx="154.93999"
       cy="102.62914"
       r="2.4834287"
       inkscape:label="trig" />
    <circle
       style="display:inline;fill:#0000ff;fill-opacity:1;stroke:none;stroke-width:0.264583;stroke-opacity:1"
       id="circle2234-4"
       cx="154.94"
       cy="119.00404"
       r="2.4834287"
       inkscape:label="output" />
  </g>
</svg>
